<?xml version="1.0" encoding="UTF-8"?>
<svg version="1.1" xmlns="http://www.w3.org/2000/svg" width="612" height="408">
<path d="M0 0 C201.96 0 403.92 0 612 0 C612 134.64 612 269.28 612 408 C410.04 408 208.08 408 0 408 C0 273.36 0 138.72 0 0 Z " fill="#FEFEFE" transform="translate(0,0)"/>
<path d="M0 0 C1.04220703 -0.05414063 2.08441406 -0.10828125 3.15820312 -0.1640625 C10.70639692 -0.29842323 10.70639692 -0.29842323 13.84082031 1.96411133 C18.20565304 6.9004668 19.8125 11.88894144 19.8125 18.5 C20.37995532 18.49631283 20.94741064 18.49262566 21.53206158 18.48882675 C35.34506607 18.4004558 49.15802098 18.33453622 62.97124767 18.29275131 C69.65128084 18.2718657 76.33107056 18.24352975 83.01098633 18.19824219 C89.45598165 18.15482014 95.90078073 18.1308702 102.34591103 18.12049103 C104.80633954 18.1130932 107.26675717 18.09864723 109.72710228 18.07707977 C113.17011198 18.04809524 116.61230809 18.04404207 120.05541992 18.04589844 C121.07537552 18.03151733 122.09533112 18.01713623 123.14619446 18.00231934 C127.55546676 18.02808882 130.10381675 18.07573319 133.94949341 20.37802124 C136.87491864 23.71010295 136.32319577 26.25223761 136.12255859 30.50292969 C135.62642143 35.2986618 134.70276579 39.92944517 133.625 44.625 C133.16240039 46.7183834 132.70152145 48.81214762 132.2421875 50.90625 C132.00467773 51.98132813 131.76716797 53.05640625 131.52246094 54.1640625 C130.79762991 57.56987099 130.14250864 60.98256185 129.5078125 64.40625 C129.29664795 65.53015137 129.0854834 66.65405273 128.86791992 67.81201172 C128.46481793 69.97324997 128.07129245 72.13630283 127.6887207 74.30126953 C126.64022899 79.82016915 125.67106562 84.20064921 121.8125 88.5 C117.23204607 91.30771614 113.36495131 91.94212344 108.09814453 91.91992188 C106.97493805 91.93262619 106.97493805 91.93262619 105.82904053 91.94558716 C103.36762235 91.96887736 100.90683227 91.9699812 98.4453125 91.96875 C96.72427117 91.97585681 95.0032322 91.98355657 93.28219604 91.99182129 C89.67943736 92.00524806 86.07689775 92.0068432 82.47412109 92.00097656 C77.87182369 91.99508452 73.27058268 92.02565928 68.66848946 92.06609344 C65.11496379 92.09202553 61.56169058 92.09484285 58.00808334 92.09120178 C56.31210553 92.09288813 54.61611545 92.10248373 52.92023087 92.12034607 C36.44526176 92.27477634 36.44526176 92.27477634 31.16348267 88.0880127 C28.69017528 85.18076331 27.72166664 82.1605649 26.8125 78.5 C26.60927124 77.78682617 26.40604248 77.07365234 26.19665527 76.33886719 C25.54759175 74.02577611 24.94915021 71.70388185 24.359375 69.375 C23.90348308 67.60880534 23.44759115 65.84261068 22.99169922 64.07641602 C22.7580365 63.1643338 22.52437378 62.25225159 22.28363037 61.31253052 C15.65764927 35.23208158 15.65764927 35.23208158 7.8125 9.5 C6.53632813 9.45101562 5.26015625 9.40203125 3.9453125 9.3515625 C2.27601928 9.27653809 0.60674954 9.20099012 -1.0625 9.125 C-1.90425781 9.0940625 -2.74601563 9.063125 -3.61328125 9.03125 C-4.41894531 8.99257812 -5.22460938 8.95390625 -6.0546875 8.9140625 C-6.79831543 8.8826416 -7.54194336 8.8512207 -8.30810547 8.81884766 C-10.1875 8.5 -10.1875 8.5 -12.1875 6.5 C-12.375 3.9375 -12.375 3.9375 -12.1875 1.5 C-9.68595339 -1.00154661 -3.35128009 0.07325202 0 0 Z " fill="#68391E" transform="translate(239.1875,95.5)"/>
<path d="M0 0 C1.04220703 -0.05414063 2.08441406 -0.10828125 3.15820312 -0.1640625 C10.70639692 -0.29842323 10.70639692 -0.29842323 13.84082031 1.96411133 C18.20565304 6.9004668 19.8125 11.88894144 19.8125 18.5 C20.37995532 18.49631283 20.94741064 18.49262566 21.53206158 18.48882675 C35.34506607 18.4004558 49.15802098 18.33453622 62.97124767 18.29275131 C69.65128084 18.2718657 76.33107056 18.24352975 83.01098633 18.19824219 C89.45598165 18.15482014 95.90078073 18.1308702 102.34591103 18.12049103 C104.80633954 18.1130932 107.26675717 18.09864723 109.72710228 18.07707977 C113.17011198 18.04809524 116.61230809 18.04404207 120.05541992 18.04589844 C121.07537552 18.03151733 122.09533112 18.01713623 123.14619446 18.00231934 C127.55546676 18.02808882 130.10381675 18.07573319 133.94949341 20.37802124 C136.87491864 23.71010295 136.32319577 26.25223761 136.12255859 30.50292969 C135.62642143 35.2986618 134.70276579 39.92944517 133.625 44.625 C133.16240039 46.7183834 132.70152145 48.81214762 132.2421875 50.90625 C132.00467773 51.98132813 131.76716797 53.05640625 131.52246094 54.1640625 C130.79762991 57.56987099 130.14250864 60.98256185 129.5078125 64.40625 C129.29664795 65.53015137 129.0854834 66.65405273 128.86791992 67.81201172 C128.46481793 69.97324997 128.07129245 72.13630283 127.6887207 74.30126953 C126.64022899 79.82016915 125.67106562 84.20064921 121.8125 88.5 C117.23204607 91.30771614 113.36495131 91.94212344 108.09814453 91.91992188 C106.97493805 91.93262619 106.97493805 91.93262619 105.82904053 91.94558716 C103.36762235 91.96887736 100.90683227 91.9699812 98.4453125 91.96875 C96.72427117 91.97585681 95.0032322 91.98355657 93.28219604 91.99182129 C89.67943736 92.00524806 86.07689775 92.0068432 82.47412109 92.00097656 C77.87182369 91.99508452 73.27058268 92.02565928 68.66848946 92.06609344 C65.11496379 92.09202553 61.56169058 92.09484285 58.00808334 92.09120178 C56.31210553 92.09288813 54.61611545 92.10248373 52.92023087 92.12034607 C36.44526176 92.27477634 36.44526176 92.27477634 31.16348267 88.0880127 C28.69017528 85.18076331 27.72166664 82.1605649 26.8125 78.5 C26.60927124 77.78682617 26.40604248 77.07365234 26.19665527 76.33886719 C25.54759175 74.02577611 24.94915021 71.70388185 24.359375 69.375 C23.90348308 67.60880534 23.44759115 65.84261068 22.99169922 64.07641602 C22.7580365 63.1643338 22.52437378 62.25225159 22.28363037 61.31253052 C15.65764927 35.23208158 15.65764927 35.23208158 7.8125 9.5 C6.53632813 9.45101562 5.26015625 9.40203125 3.9453125 9.3515625 C2.27601928 9.27653809 0.60674954 9.20099012 -1.0625 9.125 C-1.90425781 9.0940625 -2.74601563 9.063125 -3.61328125 9.03125 C-4.41894531 8.99257812 -5.22460938 8.95390625 -6.0546875 8.9140625 C-6.79831543 8.8826416 -7.54194336 8.8512207 -8.30810547 8.81884766 C-10.1875 8.5 -10.1875 8.5 -12.1875 6.5 C-12.375 3.9375 -12.375 3.9375 -12.1875 1.5 C-9.68595339 -1.00154661 -3.35128009 0.07325202 0 0 Z M22.8125 26.5 C23.27072468 29.96941546 23.70381683 33.17395049 24.8125 36.5 C29.98567421 37.56309567 34.93619336 37.61693938 40.1875 37.5625 C41.01894531 37.55798828 41.85039062 37.55347656 42.70703125 37.54882812 C44.74221897 37.53713164 46.77736923 37.51919935 48.8125 37.5 C48.8125 38.16 48.8125 38.82 48.8125 39.5 C47.4925 39.83 46.1725 40.16 44.8125 40.5 C45.1425 42.81 45.4725 45.12 45.8125 47.5 C44.51840408 47.04857119 43.22728941 46.58858979 41.9375 46.125 C41.21820313 45.86976563 40.49890625 45.61453125 39.7578125 45.3515625 C37.8125 44.5 37.8125 44.5 35.8125 42.5 C33.60177023 42.25746187 33.60177023 42.25746187 31.1875 42.375 C29.96160156 42.40207031 29.96160156 42.40207031 28.7109375 42.4296875 C27.77121094 42.46449219 27.77121094 42.46449219 26.8125 42.5 C27.91036425 47.90787385 27.91036425 47.90787385 31.8125 51.5 C32.8025 51.5 33.7925 51.5 34.8125 51.5 C34.0625 56.25 34.0625 56.25 31.8125 58.5 C31.78874074 60.4931567 31.78874074 60.4931567 32.1875 62.625 C32.39375 63.90375 32.6 65.1825 32.8125 66.5 C36.83560606 65.97615807 38.87098951 64.95702701 41.8125 62.1875 C44.10306757 60.06612208 46.30775135 58.12856149 48.8125 56.25 C49.4725 55.6725 50.1325 55.095 50.8125 54.5 C50.8125 53.51 50.8125 52.52 50.8125 51.5 C54.21164975 52.63304992 54.86504451 53.62518475 56.8125 56.5 C55.8225 56.5 54.8325 56.5 53.8125 56.5 C53.8125 55.84 53.8125 55.18 53.8125 54.5 C53.1525 54.83 52.4925 55.16 51.8125 55.5 C51.915625 56.2425 52.01875 56.985 52.125 57.75 C51.8125 60.5 51.8125 60.5 49.3125 62.625 C48.075 63.553125 48.075 63.553125 46.8125 64.5 C46.8125 65.49 46.8125 66.48 46.8125 67.5 C49.16674675 67.52726927 51.52066962 67.54696719 53.875 67.5625 C55.84146484 67.57990234 55.84146484 67.57990234 57.84765625 67.59765625 C61.6288519 67.50452335 65.09170707 67.11448726 68.8125 66.5 C68.8125 67.16 68.8125 67.82 68.8125 68.5 C74.87300614 69.5812391 74.87300614 69.5812391 80.8125 68.5 C81.1425 67.18 81.4725 65.86 81.8125 64.5 C82.8025 64.5 83.7925 64.5 84.8125 64.5 C84.8125 65.49 84.8125 66.48 84.8125 67.5 C88.7725 67.83 92.7325 68.16 96.8125 68.5 C96.8125 69.16 96.8125 69.82 96.8125 70.5 C89.94012787 71.5272003 83.16083856 71.71462518 76.21875 71.81640625 C75.03148315 71.83718735 73.84421631 71.85796844 72.62097168 71.87937927 C68.85153648 71.94443855 65.08203529 72.0035559 61.3125 72.0625 C58.74738918 72.10572675 56.18228488 72.14934233 53.6171875 72.19335938 C47.34902683 72.30007491 41.08080143 72.40192004 34.8125 72.5 C34.73159029 74.12418745 34.67335005 75.74951745 34.625 77.375 C34.59019531 78.27992188 34.55539062 79.18484375 34.51953125 80.1171875 C34.61621094 80.90351563 34.71289062 81.68984375 34.8125 82.5 C38.43114883 84.91243255 41.08366411 84.7958371 45.265625 84.79052734 C46.40022156 84.80060318 46.40022156 84.80060318 47.55773926 84.81088257 C50.05939286 84.82988921 52.56077868 84.83378776 55.0625 84.8359375 C56.79980582 84.84236246 58.53711054 84.84909059 60.27441406 84.85610962 C63.91604116 84.86808824 67.55757334 84.87178973 71.19921875 84.87060547 C75.87030627 84.87040199 80.54078734 84.89773116 85.21173096 84.93214989 C88.79934498 84.95436101 92.38681156 84.95844484 95.9744873 84.95738602 C97.69692073 84.95974968 99.41935775 84.96861608 101.14172363 84.98405075 C103.5480431 85.0035991 105.95303517 84.99791832 108.359375 84.98583984 C109.07323364 84.99707886 109.78709229 85.00831787 110.52258301 85.01989746 C113.76739087 84.97840847 115.38561277 84.91572271 117.76000977 82.60342407 C118.93231292 80.26055134 119.12995756 78.84915111 119 76.25 C118.938125 75.0125 118.87625 73.775 118.8125 72.5 C116.8325 72.5 114.8525 72.5 112.8125 72.5 C112.8125 71.18 112.8125 69.86 112.8125 68.5 C115.83984375 68.54882812 115.83984375 68.54882812 118.8671875 68.59765625 C120.89435404 68.62649242 120.89435404 68.62649242 122.8125 67.5 C122.8690109 64.13147485 122.8690109 64.13147485 121.8125 60.5 C119.5893466 58.6455908 117.48419663 57.71440756 114.8125 56.5 C115.14670036 53.38079662 115.76038534 52.54525746 118.1875 50.4375 C119.05375 49.798125 119.92 49.15875 120.8125 48.5 C122.71208081 47.18681738 122.71208081 47.18681738 123.8125 45.5 C123.58206136 42.84533951 123.58206136 42.84533951 122.8125 40.5 C119.5125 40.5 116.2125 40.5 112.8125 40.5 C112.8125 39.51 112.8125 38.52 112.8125 37.5 C117.4325 37.5 122.0525 37.5 126.8125 37.5 C126.833125 35.870625 126.85375 34.24125 126.875 32.5625 C126.88660156 31.64597656 126.89820313 30.72945312 126.91015625 29.78515625 C127.07199049 27.53406673 127.07199049 27.53406673 125.8125 26.5 C124.47177183 26.40472963 123.12607497 26.3781123 121.78196716 26.37974548 C120.91393463 26.37837082 120.0459021 26.37699615 119.15156555 26.37557983 C117.71226936 26.38097275 117.71226936 26.38097275 116.24389648 26.38647461 C115.23913269 26.38632858 114.2343689 26.38618256 113.19915771 26.3860321 C109.86061483 26.3867317 106.52212695 26.39452626 103.18359375 26.40234375 C100.87573782 26.40420776 98.56788149 26.40563174 96.26002502 26.40663147 C90.17232174 26.41045796 84.08464214 26.42028935 77.99694824 26.43133545 C71.79028646 26.44154677 65.58362087 26.44612849 59.37695312 26.45117188 C47.18879165 26.4619115 35.00064779 26.47898948 22.8125 26.5 Z " fill="#5C3528" transform="translate(239.1875,95.5)"/>
<path d="M0 0 C14.19 0 28.38 0 43 0 C43 0.66 43 1.32 43 2 C41.02 2.33 39.04 2.66 37 3 C42.445 3.495 42.445 3.495 48 4 C48.495 5.98 48.495 5.98 49 8 C50.9837767 9.28436734 50.9837767 9.28436734 53 10 C52.50628906 10.40992188 52.01257813 10.81984375 51.50390625 11.2421875 C50.86324219 11.78101563 50.22257812 12.31984375 49.5625 12.875 C48.92441406 13.40867188 48.28632813 13.94234375 47.62890625 14.4921875 C45.89194996 15.9222757 45.89194996 15.9222757 45 18 C45.57234375 18.24621094 46.1446875 18.49242187 46.734375 18.74609375 C49.35664454 20.19738431 51.12383725 21.95545742 53.25 24.0625 C57.55693526 28.01230961 60.20726287 29 66 29 C65.01 25.535 65.01 25.535 64 22 C65.485 22.495 65.485 22.495 67 23 C67.495 26.465 67.495 26.465 68 30 C64.78548731 31.60725635 61.56387464 31.05748185 58 31 C58 32.32 58 33.64 58 35 C59.98 35 61.96 35 64 35 C64.36366081 42.27321616 64.36366081 42.27321616 62.94750977 45.10342407 C60.57311277 47.41572271 58.95489087 47.47840847 55.71008301 47.51989746 C54.99622437 47.50865845 54.28236572 47.49741943 53.546875 47.48583984 C52.79047729 47.48963654 52.03407959 47.49343323 51.25476074 47.49734497 C48.75275291 47.50475861 46.25190474 47.48335787 43.75 47.4609375 C42.0126967 47.45855343 40.2753908 47.45764768 38.53808594 47.4581604 C34.89632029 47.45503101 31.25494795 47.4384554 27.61328125 47.41162109 C22.9423361 47.37764096 18.27182331 47.36999243 13.60076904 47.37151146 C10.01314151 47.37096791 6.42560873 47.36000312 2.8380127 47.34550858 C1.11560788 47.33913872 -0.60680768 47.33520124 -2.32922363 47.33372116 C-4.73529388 47.3293901 -7.14090355 47.31189368 -9.546875 47.29052734 C-10.26073364 47.29143372 -10.97459229 47.29234009 -11.71008301 47.29327393 C-15.36164948 47.2457993 -16.8737024 47.0841984 -20 45 C-20.29296875 42.6171875 -20.29296875 42.6171875 -20.1875 39.875 C-20.16042969 38.96492188 -20.13335937 38.05484375 -20.10546875 37.1171875 C-20.07066406 36.41851562 -20.03585937 35.71984375 -20 35 C-19.34124878 34.98969254 -18.68249756 34.97938507 -18.00378418 34.96876526 C-11.12515168 34.86028198 -4.24663916 34.74572011 2.63183594 34.62768555 C5.19626343 34.58447031 7.76071722 34.54278621 10.32519531 34.50268555 C14.01896067 34.44465704 17.71259533 34.38105743 21.40625 34.31640625 C23.1160907 34.29133751 23.1160907 34.29133751 24.86047363 34.26576233 C30.65227643 34.1588516 36.26930778 33.85655559 42 33 C42 32.34 42 31.68 42 31 C38.04 30.67 34.08 30.34 30 30 C30 29.01 30 28.02 30 27 C29.01 27 28.02 27 27 27 C26.67 28.32 26.34 29.64 26 31 C24.56465159 31.2226746 23.12654475 31.42761906 21.6875 31.625 C20.48673828 31.79902344 20.48673828 31.79902344 19.26171875 31.9765625 C17 32 17 32 14 30 C10.95978307 28.95492543 10.1804936 28.93983547 7 30 C4.42734182 30.07029121 1.88358569 30.09370832 -0.6875 30.0625 C-1.38939453 30.05798828 -2.09128906 30.05347656 -2.81445312 30.04882812 C-4.54300538 30.03706927 -6.27151365 30.01913454 -8 30 C-8 29.01 -8 28.02 -8 27 C-7.175 26.401875 -6.35 25.80375 -5.5 25.1875 C-2.64346567 23.19277652 -2.64346567 23.19277652 -2.6875 19.75 C-2.790625 18.8425 -2.89375 17.935 -3 17 C-2.34 17 -1.68 17 -1 17 C-1 17.66 -1 18.32 -1 19 C-0.01 18.67 0.98 18.34 2 18 C2.33 17.34 2.66 16.68 3 16 C4.97941743 17.81222681 6.95854505 19.62476828 8.9375 21.4375 C9.50146484 21.95376953 10.06542969 22.47003906 10.64648438 23.00195312 C14.88671875 26.88671875 14.88671875 26.88671875 16 28 C20.75604266 28.53624939 20.75604266 28.53624939 24.8125 26.5 C25.204375 26.005 25.59625 25.51 26 25 C26.66 25 27.32 25 28 25 C28 24.34 28 23.68 28 23 C29.46875 21.5546875 29.46875 21.5546875 31.5 19.875 C35.3499234 16.62106119 38.86064335 13.15227282 42.3359375 9.50390625 C44 8 44 8 46 8 C46 7.34 46 6.68 46 6 C41.73852128 5.10163422 38.24923785 4.96234081 34 6 C28.94468336 9.49736361 24.96038185 14.34974519 21 19 C16.4890564 17.58273765 14.04607658 15.33740276 10.8125 11.9375 C7.73255163 8.53095187 7.73255163 8.53095187 4 6 C4 4.68 4 3.36 4 2 C2.68 2 1.36 2 0 2 C0 1.34 0 0.68 0 0 Z " fill="#633521" transform="translate(294,133)"/>
<path d="M0 0 C13.41225793 -0.0231207 26.82451117 -0.04091369 40.23678493 -0.05181217 C46.46393472 -0.0570416 52.69107092 -0.06414033 58.91821289 -0.07543945 C64.92226865 -0.08626621 70.92631129 -0.09227638 76.93037605 -0.09487724 C79.2266161 -0.09673188 81.52285539 -0.10035321 83.81908989 -0.10573006 C87.02320814 -0.11293768 90.2272715 -0.11399106 93.43139648 -0.11352539 C94.87069267 -0.1189183 94.87069267 -0.1189183 96.33906555 -0.12442017 C97.20709808 -0.1230455 98.07513062 -0.12167084 98.96946716 -0.12025452 C99.72810279 -0.12117631 100.48673841 -0.1220981 101.268363 -0.12304783 C103 0 103 0 104 1 C104 3.64 104 6.28 104 9 C70.34 9 36.68 9 2 9 C0 4 0 4 0 0 Z " fill="#C67721" transform="translate(262,122)"/>
<path d="M0 0 C27.39 0 54.78 0 83 0 C82 6 82 6 80.8918457 7.8497467 C77.97795221 9.62141106 75.04050486 9.42548762 71.73046875 9.40405273 C70.99357819 9.41091599 70.25668762 9.41777924 69.49746704 9.42485046 C67.06061562 9.4431586 64.62440546 9.43927585 62.1875 9.43359375 C60.49503367 9.43815332 58.80256919 9.44345821 57.11010742 9.44947815 C53.56258625 9.45841687 50.01529012 9.45597718 46.46777344 9.44604492 C41.91771198 9.43454819 37.36842577 9.45477314 32.81846619 9.48396206 C29.3234767 9.50229141 25.82867416 9.50203828 22.33364868 9.49632454 C20.65588289 9.49617095 18.97810472 9.50224589 17.30038452 9.51461601 C14.95626905 9.5294651 12.61360085 9.51889603 10.26953125 9.50170898 C9.2267955 9.51621094 9.2267955 9.51621094 8.16299438 9.53100586 C5.08043867 9.48358529 3.39953155 9.35138999 1.0456543 7.28114319 C0 5 0 5 0 0 Z " fill="#CD731B" transform="translate(275,169)"/>
<path d="M0 0 C0.98320976 -0.00262848 0.98320976 -0.00262848 1.98628235 -0.00531006 C4.16812745 -0.00973406 6.34989225 -0.00678533 8.53173828 -0.00341797 C10.05095434 -0.00409166 11.5701703 -0.00506223 13.08938599 -0.00631714 C16.28567524 -0.0077955 19.48193664 -0.00563812 22.67822266 -0.00097656 C26.74749456 0.00467254 30.8166998 0.00147356 34.88596916 -0.00454903 C38.03124477 -0.00819243 41.17650505 -0.00699802 44.32178116 -0.00442123 C45.81987643 -0.00375984 47.31797316 -0.00455246 48.81606674 -0.00690079 C66.53309303 -0.0285444 66.53309303 -0.0285444 73.72705078 1.12939453 C74.72705078 2.12939453 74.72705078 2.12939453 74.85205078 5.12939453 C74.72705078 8.12939453 74.72705078 8.12939453 73.72705078 9.12939453 C71.85352976 9.22862218 69.97624402 9.25738842 68.10009766 9.25878906 C66.89373657 9.26194122 65.68737549 9.26509338 64.44445801 9.26834106 C63.12490112 9.26631683 61.80534424 9.2642926 60.44580078 9.26220703 C59.07547997 9.26288124 57.70515927 9.26385223 56.33483887 9.2651062 C53.44619623 9.26658561 50.55758438 9.26442617 47.66894531 9.25976562 C44.01673873 9.25415286 40.36460621 9.25739823 36.71240234 9.26318741 C1.72021478 9.31090697 1.72021478 9.31090697 -6.27294922 8.12939453 C-6.93294922 7.46939453 -7.59294922 6.80939453 -8.27294922 6.12939453 C-7.49598421 -0.24171857 -6.14811632 0.00410911 0 0 Z " fill="#644033" transform="translate(283.27294921875,192.87060546875)"/>
<path d="M0 0 C15.54545455 0 15.54545455 0 21.375 5.0625 C24.30156477 8.55186569 24.33820363 11.25154269 24.28125 15.6796875 C23.8448012 19.28039012 22.36531761 21.31504488 20 24 C15.84365715 27.1850236 12.23898806 27.37455128 7.1875 27.1875 C4.815625 27.125625 2.44375 27.06375 0 27 C0 18.09 0 9.18 0 0 Z " fill="#623D32" transform="translate(224,242)"/>
<path d="M0 0 C1 3 1 3 1 6 C1.99 6.495 1.99 6.495 3 7 C3.99 7.99 3.99 7.99 5 9 C5.33 8.01 5.66 7.02 6 6 C6.66 6 7.32 6 8 6 C7.2841951 13.48413793 6.03057559 20.80404491 4.625 28.1875 C4.41617188 29.33669922 4.20734375 30.48589844 3.9921875 31.66992188 C2.38989129 40.10640224 0.65648995 46.17557129 -6 52 C-9.56616414 53.18872138 -12.79091341 53.13208696 -16.50073242 53.11352539 C-17.26194901 53.11367142 -18.02316559 53.11381744 -18.80744934 53.1139679 C-21.3234848 53.11327124 -23.83944622 53.10549038 -26.35546875 53.09765625 C-28.09995992 53.09579119 -29.8444516 53.0943677 -31.58894348 53.09336853 C-36.18058722 53.08955026 -40.77219933 53.07972584 -45.36383057 53.06866455 C-50.04918998 53.05843561 -54.73455451 53.05386773 -59.41992188 53.04882812 C-68.61329515 53.03810298 -77.80664494 53.02103481 -87 53 C-87 52.67 -87 52.34 -87 52 C-61.59 52 -36.18 52 -10 52 C-10 50.35 -10 48.7 -10 47 C-9.525625 46.236875 -9.05125 45.47375 -8.5625 44.6875 C-6.46390418 41.07791519 -6.3510885 38.14284428 -6 34 C-7.98 34 -9.96 34 -12 34 C-12 32.68 -12 31.36 -12 30 C-8.7 29.67 -5.4 29.34 -2 29 C-2.55032098 25.5693717 -2.55032098 25.5693717 -4 22 C-7.00007271 20.29144978 -7.00007271 20.29144978 -10 19 C-11.1875 17.125 -11.1875 17.125 -11 15 C-8.6875 12.25 -8.6875 12.25 -6 10 C-5.34 10 -4.68 10 -4 10 C-3.67 9.01 -3.34 8.02 -3 7 C-2.34 7 -1.68 7 -1 7 C-1.020625 6.030625 -1.04125 5.06125 -1.0625 4.0625 C-1 1 -1 1 0 0 Z " fill="#5F392B" transform="translate(364,134)"/>
<path d="M0 0 C11.10240677 -1.06623724 11.10240677 -1.06623724 15.3984375 1.34765625 C17.39184839 3.14015023 19.19179717 5.02203141 21 7 C22.31773066 8.16374298 23.65031662 9.31097144 25 10.4375 C25.99 11.283125 26.98 12.12875 28 13 C32.08849368 11.43258672 34.12853751 8.6443789 36.9375 5.375 C39.89521697 2.14676951 42.18225144 0.16372671 46.609375 -0.72265625 C49.80781468 -0.69123053 52.84221384 -0.49701245 56 0 C54.89041597 3.3287521 54.07455496 4.01489699 51.4375 6.1875 C47.60614476 9.41826442 44.11928602 12.86879734 40.6640625 16.49609375 C39 18 39 18 37 18 C37 18.66 37 19.32 37 20 C34.36006026 22.71993791 32.43982017 23.89004496 28.75 24.8125 C23.70065299 23.71847481 21.69713722 21.16636981 18.2578125 17.44140625 C16.24136082 15.26098705 14.18572623 13.31023788 11.9375 11.375 C11.29683594 10.82328125 10.65617187 10.2715625 9.99609375 9.703125 C9.33738281 9.14109375 8.67867188 8.5790625 8 8 C6.49741882 6.7113369 4.99735831 5.4197281 3.5 4.125 C2.8296875 3.55007812 2.159375 2.97515625 1.46875 2.3828125 C0.9840625 1.92648438 0.499375 1.47015625 0 1 C0 0.67 0 0.34 0 0 Z " fill="#D29025" transform="translate(285,138)"/>
<path d="M0 0 C14.19642857 -0.53571429 14.19642857 -0.53571429 17.8125 1.875 C20.39266816 4.38144907 20.91717964 5.25461673 21.3125 8.8125 C20.93193325 12.69428088 19.63085134 14.20472045 17 17 C17.28875 17.721875 17.5775 18.44375 17.875 19.1875 C18.91666667 21.79166667 19.95833333 24.39583333 21 27 C18.69 27 16.38 27 14 27 C13.75765625 26.43410156 13.5153125 25.86820312 13.265625 25.28515625 C12.93046875 24.55167969 12.5953125 23.81820313 12.25 23.0625 C11.92515625 22.33160156 11.6003125 21.60070312 11.265625 20.84765625 C9.97377317 18.52359666 9.97377317 18.52359666 6 18 C6 20.97 6 23.94 6 27 C4.02 27 2.04 27 0 27 C0 18.09 0 9.18 0 0 Z " fill="#5A3327" transform="translate(394,242)"/>
<path d="M0 0 C6 0 6 0 7.69091797 1.37695312 C8.12033691 2.00537109 8.54975586 2.63378906 8.9921875 3.28125 C9.70761719 4.29638672 9.70761719 4.29638672 10.4375 5.33203125 C10.911875 6.04746094 11.38625 6.76289063 11.875 7.5 C12.37257812 8.21542969 12.87015625 8.93085938 13.3828125 9.66796875 C14.60654389 11.43296595 15.80571433 13.21494668 17 15 C17.33 10.05 17.66 5.1 18 0 C19.98 0 21.96 0 24 0 C24 8.91 24 17.82 24 27 C18 27 18 27 15.76953125 24.98828125 C14.80080078 23.66376953 14.80080078 23.66376953 13.8125 22.3125 C12.83216797 21.00732422 12.83216797 21.00732422 11.83203125 19.67578125 C10.12400738 17.18111953 8.55550393 14.59250654 7 12 C6.67 16.95 6.34 21.9 6 27 C4.02 27 2.04 27 0 27 C0 18.09 0 9.18 0 0 Z " fill="#664437" transform="translate(194,242)"/>
<path d="M0 0 C14.19 0 28.38 0 43 0 C43 0.66 43 1.32 43 2 C41.51306641 2.25910156 41.51306641 2.25910156 39.99609375 2.5234375 C34.78419045 4.01255273 31.68008005 7.77666166 28.0625 11.625 C27.37865234 12.33140625 26.69480469 13.0378125 25.99023438 13.765625 C24.31485716 15.49958183 22.6523227 17.24410837 21 19 C16.4890564 17.58273765 14.04607658 15.33740276 10.8125 11.9375 C7.73255163 8.53095187 7.73255163 8.53095187 4 6 C4 4.68 4 3.36 4 2 C2.68 2 1.36 2 0 2 C0 1.34 0 0.68 0 0 Z " fill="#5D3526" transform="translate(294,133)"/>
<path d="M0 0 C1.98 0 3.96 0 6 0 C8.72425667 5.13417602 11.05722513 10.37217082 13.25 15.75 C13.52021973 16.39976807 13.79043945 17.04953613 14.06884766 17.71899414 C15.42351574 21.09172565 16 23.30229071 16 27 C14.02 27 12.04 27 10 27 C9.505 24.525 9.505 24.525 9 22 C5.37 22 1.74 22 -2 22 C-2.99 24.475 -2.99 24.475 -4 27 C-5.98 27 -7.96 27 -10 27 C-7.58650007 17.64481454 -3.75743534 8.873724 0 0 Z " fill="#68463B" transform="translate(374,242)"/>
<path d="M0 0 C1.4540625 0.0309375 1.4540625 0.0309375 2.9375 0.0625 C4.60973282 4.18526549 6.27434063 8.31106675 7.9375 12.4375 C8.41445313 13.613125 8.89140625 14.78875 9.3828125 16 C9.83398438 17.12148438 10.28515625 18.24296875 10.75 19.3984375 C11.16894531 20.43532715 11.58789062 21.4722168 12.01953125 22.54052734 C12.9375 25.0625 12.9375 25.0625 12.9375 27.0625 C10.9575 27.0625 8.9775 27.0625 6.9375 27.0625 C6.72351563 26.41796875 6.50953125 25.7734375 6.2890625 25.109375 C5.0901477 22.78410885 5.0901477 22.78410885 2.3359375 22.453125 C0.83933594 22.38351562 0.83933594 22.38351562 -0.6875 22.3125 C-1.69039063 22.25578125 -2.69328125 22.1990625 -3.7265625 22.140625 C-4.88285156 22.10195313 -4.88285156 22.10195313 -6.0625 22.0625 C-6.3925 23.7125 -6.7225 25.3625 -7.0625 27.0625 C-9.0425 27.0625 -11.0225 27.0625 -13.0625 27.0625 C-12.44132101 21.2098292 -10.27469333 16.14512185 -8.0625 10.75 C-7.69382813 9.83154297 -7.32515625 8.91308594 -6.9453125 7.96679688 C-3.74954681 0.07652136 -3.74954681 0.07652136 0 0 Z " fill="#644238" transform="translate(262.0625,241.9375)"/>
<path d="M0 0 C2.31 0 4.62 0 7 0 C8.51110807 3.74561895 10.00693339 7.4971569 11.5 11.25 C11.92925781 12.31347656 12.35851562 13.37695312 12.80078125 14.47265625 C13.40986328 16.00986328 13.40986328 16.00986328 14.03125 17.578125 C14.40830078 18.52075195 14.78535156 19.46337891 15.17382812 20.43457031 C16 23 16 23 16 27 C14.02 27 12.04 27 10 27 C9.505 24.525 9.505 24.525 9 22 C7.20739868 22.05995322 5.41574205 22.1487241 3.625 22.25 C2.62726563 22.29640625 1.62953125 22.3428125 0.6015625 22.390625 C-2.1526477 22.72160885 -2.1526477 22.72160885 -3.3515625 25.046875 C-3.56554687 25.69140625 -3.77953125 26.3359375 -4 27 C-5.65 27 -7.3 27 -9 27 C-8.45371735 20.67872937 -6.36700755 15.39080049 -3.9375 9.5625 C-3.56044922 8.64017578 -3.18339844 7.71785156 -2.79492188 6.76757812 C-1.87031 4.5087162 -0.93855136 2.2530973 0 0 Z " fill="#603A2E" transform="translate(312,242)"/>
<path d="M0 0 C4.02326752 2.87959756 7.78657032 5.64629955 11.0625 9.375 C13.81449657 12.31524203 13.81449657 12.31524203 17.6875 12.5625 C21.10379407 11.98237459 21.92966019 11.61516608 24 9 C24.66 9 25.32 9 26 9 C26 8.34 26 7.68 26 7 C27.75 5.4921875 27.75 5.4921875 30 3.875 C30.7425 3.33617187 31.485 2.79734375 32.25 2.2421875 C33.11625 1.62730469 33.11625 1.62730469 34 1 C33.67 2.65 33.34 4.3 33 6 C33.66 5.67 34.32 5.34 35 5 C39.59777518 6.61773571 42.87272432 8.12217816 46 12 C46 12.66 46 13.32 46 14 C40.06 14 34.12 14 28 14 C28 13.01 28 12.02 28 11 C27.01 11 26.02 11 25 11 C24.67 12.32 24.34 13.64 24 15 C22.56465159 15.2226746 21.12654475 15.42761906 19.6875 15.625 C18.88699219 15.74101562 18.08648437 15.85703125 17.26171875 15.9765625 C15 16 15 16 12 14 C8.95978307 12.95492543 8.1804936 12.93983547 5 14 C2.42734182 14.07029121 -0.11641431 14.09370832 -2.6875 14.0625 C-3.38939453 14.05798828 -4.09128906 14.05347656 -4.81445312 14.04882812 C-6.54300538 14.03706927 -8.27151365 14.01913454 -10 14 C-10 13.01 -10 12.02 -10 11 C-9.175 10.401875 -8.35 9.80375 -7.5 9.1875 C-4.64346567 7.19277652 -4.64346567 7.19277652 -4.6875 3.75 C-4.790625 2.8425 -4.89375 1.935 -5 1 C-4.34 1 -3.68 1 -3 1 C-3 1.66 -3 2.32 -3 3 C-2.01 2.67 -1.02 2.34 0 2 C0 1.34 0 0.68 0 0 Z " fill="#683823" transform="translate(296,149)"/>
<path d="M0 0 C3.0625 1.5 3.0625 1.5 5 3 C4.67 4.32 4.34 5.64 4 7 C1.97642677 7 -0.04790529 6.99837303 -2.0703125 6.9296875 C-4.04631417 6.8770943 -6.02432621 6.93626859 -8 7 C-10.22052862 8.80599761 -10.22052862 8.80599761 -10.265625 11.3125 C-10.26046875 12.199375 -10.2553125 13.08625 -10.25 14 C-10.25515625 14.886875 -10.2603125 15.77375 -10.265625 16.6875 C-10.22052862 19.19400239 -10.22052862 19.19400239 -8 21 C-4.15541573 21.21358801 -0.68379022 21.17881287 3 20 C3.66 21.32 4.32 22.64 5 24 C1.63052457 26.67234258 -0.8884607 27.82564089 -5.1875 28.5 C-10.57389313 27.79358779 -13.38062798 24.9018596 -17 21 C-18.85618207 17.28763586 -18.44809981 13.05156912 -18 9 C-14.08350418 1.02195295 -8.50426125 -1.19951605 0 0 Z " fill="#5E3D2E" transform="translate(357,242)"/>
<path d="M0 0 C2.60478883 -0.0809313 5.20706653 -0.14045434 7.8125 -0.1875 C8.55048828 -0.21263672 9.28847656 -0.23777344 10.04882812 -0.26367188 C15.47968174 -0.33739387 15.47968174 -0.33739387 18 1.296875 C19.64669345 4.10139979 19.16708272 6.82542826 19 10 C19 11.32 19 12.64 19 14 C19.66 14.66 20.32 15.32 21 16 C20.9375 19.4375 20.9375 19.4375 20 23 C15.98031881 26.32192521 12.18621377 26.37405487 7.1875 26.1875 C6.14819336 26.16719727 6.14819336 26.16719727 5.08789062 26.14648438 C3.39158735 26.11138845 1.69568864 26.05758943 0 26 C0 22.04 0 18.08 0 14 C0.66 15.32 1.32 16.64 2 18 C2.99 18 3.98 18 5 18 C4 21 4 21 2 23 C2.66 23.33 3.32 23.66 4 24 C4 23.34 4 22.68 4 22 C7.96 21.505 7.96 21.505 12 21 C12.33 19.35 12.66 17.7 13 16 C12.030625 15.731875 11.06125 15.46375 10.0625 15.1875 C8.5465625 14.5996875 8.5465625 14.5996875 7 14 C6.67 13.01 6.34 12.02 6 11 C8.31 11 10.62 11 13 11 C13 9.02 13 7.04 13 5 C10.36 4.67 7.72 4.34 5 4 C5 5.98 5 7.96 5 10 C4.01 10.33 3.02 10.66 2 11 C1.34 10.67 0.68 10.34 0 10 C0 6.7 0 3.4 0 0 Z " fill="#5A3428" transform="translate(279,243)"/>
<path d="M0 0 C0 0.99 0 1.98 0 3 C-1.93441615 4.89916483 -4.02442206 6.50602585 -6.15234375 8.18359375 C-8.15240645 10.14982875 -8.62127067 11.26473263 -9 14 C-8.01 14.721875 -7.02 15.44375 -6 16.1875 C-3.05206503 18.6095123 -3.05206503 18.6095123 -2.625 21.8125 C-2.74875 22.534375 -2.8725 23.25625 -3 24 C-6.24454938 24.61217913 -7.85451419 24.82930905 -11 24 C-14.17552281 21.60876739 -16.85480395 19.08249916 -19.6796875 16.28515625 C-21.78005385 13.9812327 -21.78005385 13.9812327 -24 13 C-19.45662919 2.349948 -10.99673779 -1.53047382 0 0 Z " fill="#C36423" transform="translate(363,138)"/>
<path d="M0 0 C13.56939018 -0.04636089 27.13876148 -0.08188836 40.70821476 -0.10362434 C47.00919965 -0.11405703 53.31013031 -0.12820699 59.61108398 -0.15087891 C65.6929776 -0.17262541 71.77481908 -0.1845725 77.85674858 -0.18975449 C80.17594663 -0.19344697 82.49514187 -0.20065746 84.8143177 -0.21146011 C88.06515777 -0.22599885 91.31578299 -0.22797692 94.56665039 -0.22705078 C95.523311 -0.23424133 96.47997162 -0.24143188 97.46562195 -0.24884033 C102.70755175 -0.23270368 107.03824519 0.28248278 112 2 C111.835 2.78375 111.67 3.5675 111.5 4.375 C110.96632838 8.24411927 111.05464965 11.8404977 111.2578125 15.73046875 C110.93986884 18.52933646 110.09806227 19.21295701 108 21 C107.67 21.66 107.34 22.32 107 23 C105 22 105 22 103 20 C102.34437636 17.90200436 102 16.19959601 102 14 C101.34 14.66 100.68 15.32 100 16 C97.6171875 15.9765625 97.6171875 15.9765625 94.875 15.625 C93.96492188 15.51414063 93.05484375 15.40328125 92.1171875 15.2890625 C91.41851562 15.19367188 90.71984375 15.09828125 90 15 C90 14.01 90 13.02 90 12 C94.62 12 99.24 12 104 12 C103.67 8.7 103.34 5.4 103 2 C69.01 1.67 35.02 1.34 0 1 C0 0.67 0 0.34 0 0 Z " fill="#62361E" transform="translate(262,121)"/>
<path d="M0 0 C27.72 0 55.44 0 84 0 C84 0.33 84 0.66 84 1 C56.61 1 29.22 1 1 1 C2.20678321 7.36866419 2.20678321 7.36866419 4 9 C6.3513067 9.1214891 8.6738031 9.17856862 11.02661133 9.19287109 C11.76160355 9.20104858 12.49659576 9.20922607 13.25386047 9.21765137 C15.69657566 9.24255042 18.13923254 9.25903325 20.58203125 9.2734375 C21.83087884 9.28142302 21.83087884 9.28142302 23.10495567 9.28956985 C27.51209977 9.31632178 31.91921534 9.33568959 36.32641602 9.35009766 C40.8832023 9.36674568 45.43926532 9.41151819 49.99577808 9.4624691 C53.49505968 9.49609851 56.99416881 9.50767036 60.49359703 9.51332474 C62.17337251 9.52004984 63.85313615 9.53530463 65.5327549 9.55921555 C67.88417327 9.59077836 70.23363117 9.59091829 72.58520508 9.58349609 C73.27990906 9.59990143 73.97461304 9.61630676 74.69036865 9.63320923 C76.88958294 9.65853194 76.88958294 9.65853194 80 9 C82.48869101 6.61641013 82.48869101 6.61641013 84 4 C83.45276317 7.37462715 82.9451 9.08235 81 12 C78.47281232 12.29725845 76.18978606 12.39926247 73.66040039 12.37231445 C72.90414871 12.37596512 72.14789703 12.37961578 71.36872864 12.38337708 C68.86147813 12.39150245 66.35486998 12.37785518 63.84765625 12.36328125 C62.10892233 12.36276283 60.37018781 12.36327984 58.63145447 12.36479187 C54.98378777 12.36470205 51.33634165 12.35425472 47.6887207 12.33618164 C43.00991314 12.31351093 38.33142856 12.31294631 33.65258121 12.31969929 C30.06067529 12.32303915 26.46884316 12.31640857 22.87695122 12.30657005 C21.15175195 12.3027168 19.42654447 12.30157036 17.70134163 12.3031559 C15.2903998 12.30352627 12.87987361 12.29091384 10.46899414 12.2746582 C9.39584961 12.27837433 9.39584961 12.27837433 8.30102539 12.28216553 C4.64293915 12.24275054 3.13191689 12.08794459 0 10 C0 6.7 0 3.4 0 0 Z " fill="#7D4118" transform="translate(274,168)"/>
<path d="M0 0 C4.1055696 -0.76544518 7.04464392 -1.24018712 10.70214844 1.07958984 C14.69342625 4.13347262 18.36300938 7.53727014 22 11 C20.61536056 14.12749407 19.00477577 16.2404985 16.5625 18.625 C15.96566406 19.21539062 15.36882812 19.80578125 14.75390625 20.4140625 C11.59825253 23.2675044 10.36948424 24 6 24 C5.03135282 18.62841107 5.03135282 18.62841107 5 16 C6.4375 14.25 6.4375 14.25 8 13 C8 11.68 8 10.36 8 9 C7.401875 8.87625 6.80375 8.7525 6.1875 8.625 C4 8 4 8 1 6 C0.3125 2.875 0.3125 2.875 0 0 Z " fill="#C66320" transform="translate(266,138)"/>
<path d="M0 0 C2.6891965 0.84921995 3.62269404 1.47177165 5.25 3.75 C6.29329396 6.87988187 6.59200199 8.71110004 6 12 C4.0214523 14.62830745 1.89800898 16.44387067 -1 18 C-5.33186888 18.22026452 -7.13198538 17.73447391 -10.4375 14.9375 C-12.62113076 10.83227417 -12.58771847 8.62828294 -12 4 C-9.09057821 -0.84903631 -5.14205119 -0.69830325 0 0 Z " fill="#613D30" transform="translate(347,206)"/>
<path d="M0 0 C0 2.31 0 4.62 0 7 C-0.99 6.505 -0.99 6.505 -2 6 C-2.33 6.33 -2.66 6.66 -3 7 C-3.18490007 9.32357511 -3.18490007 9.32357511 -1 12 C-1.08693236 15.99888847 -1.71736366 17.66389192 -4.3125 20.75 C-9.06829498 24.7315958 -12.48604839 25.28868247 -18.61425781 25.22705078 C-19.37562042 25.22734283 -20.13698303 25.22763489 -20.92141724 25.22793579 C-23.43210336 25.22654506 -25.94249086 25.21099604 -28.453125 25.1953125 C-30.19618569 25.19158146 -31.93924848 25.18873491 -33.68231201 25.18673706 C-38.26576548 25.1791078 -42.84909181 25.15946537 -47.43249512 25.1373291 C-52.11122925 25.11685546 -56.78998396 25.10773209 -61.46875 25.09765625 C-70.64588913 25.07621882 -79.82293399 25.04209138 -89 25 C-89 24.67 -89 24.34 -89 24 C-63.59 24 -38.18 24 -12 24 C-12 22.35 -12 20.7 -12 19 C-11.525625 18.236875 -11.05125 17.47375 -10.5625 16.6875 C-8.46390418 13.07791519 -8.3510885 10.14284428 -8 6 C-9.98 6 -11.96 6 -14 6 C-14 4.68 -14 3.36 -14 2 C-12.22978678 1.663389 -10.45880326 1.33082707 -8.6875 1 C-7.20830078 0.7215625 -7.20830078 0.7215625 -5.69921875 0.4375 C-3 0 -3 0 0 0 Z " fill="#68473A" transform="translate(366,162)"/>
<path d="M0 0 C0.87454834 0.00523682 1.74909668 0.01047363 2.65014648 0.01586914 C3.59438477 0.0190918 4.53862305 0.02231445 5.51147461 0.02563477 C6.50469727 0.03401367 7.49791992 0.04239258 8.52124023 0.05102539 C9.51833008 0.05553711 10.51541992 0.06004883 11.54272461 0.06469727 C14.01478872 0.07652532 16.48673541 0.0930069 18.95874023 0.11352539 C18.95874023 2.09352539 18.95874023 4.07352539 18.95874023 6.11352539 C16.31874023 6.11352539 13.67874023 6.11352539 10.95874023 6.11352539 C10.95874023 13.04352539 10.95874023 19.97352539 10.95874023 27.11352539 C8.97874023 27.11352539 6.99874023 27.11352539 4.95874023 27.11352539 C4.95874023 20.18352539 4.95874023 13.25352539 4.95874023 6.11352539 C2.31874023 6.11352539 -0.32125977 6.11352539 -3.04125977 6.11352539 C-3.08398077 4.44740634 -3.08189809 2.77969654 -3.04125977 1.11352539 C-2.04125977 0.11352539 -2.04125977 0.11352539 0 0 Z " fill="#593528" transform="translate(420.041259765625,241.886474609375)"/>
<path d="M0 0 C3.5060303 0.86943897 4.94966563 2.56083702 6.9375 5.48046875 C7.71904305 9.85710985 7.45346953 11.69819237 5 15.41796875 C1.41237333 17.83412549 -0.71954919 18.22297155 -4.96875 17.9609375 C-7.0625 17.48046875 -7.0625 17.48046875 -9.625 15.41796875 C-11.44031677 11.7084084 -11.71872237 9.56363018 -11.0625 5.48046875 C-8.01136975 0.99912119 -5.26455839 -0.36891792 0 0 Z " fill="#623E31" transform="translate(292.0625,205.51953125)"/>
<path d="M0 0 C4.62 0 9.24 0 14 0 C14 0.33 14 0.66 14 1 C9.71 1 5.42 1 1 1 C1.33 3.97 1.66 6.94 2 10 C2.99 10 3.98 10 5 10 C5.33 8.35 5.66 6.7 6 5 C11.75 4.875 11.75 4.875 14 6 C14 7.98 14 9.96 14 12 C12.02 12.33 10.04 12.66 8 13 C8 13.66 8 14.32 8 15 C8.78375 14.95875 9.5675 14.9175 10.375 14.875 C13 15 13 15 15 17 C14.44444444 21.55555556 14.44444444 21.55555556 13 23 C10.32941149 23.14115161 7.67567762 23.04247107 5 23 C5 23.66 5 24.32 5 25 C4.01 24.67 3.02 24.34 2 24 C2 23.34 2 22.68 2 22 C2.99 21.34 3.98 20.68 5 20 C4.01 19.67 3.02 19.34 2 19 C1.67 21.64 1.34 24.28 1 27 C0.67 27 0.34 27 0 27 C0 18.09 0 9.18 0 0 Z " fill="#9A827A" transform="translate(278,242)"/>
<path d="M0 0 C27.39 0 54.78 0 83 0 C82 6 82 6 80.8918457 7.8497467 C77.97795221 9.62141106 75.04050486 9.42548762 71.73046875 9.40405273 C70.99357819 9.41091599 70.25668762 9.41777924 69.49746704 9.42485046 C67.06061562 9.4431586 64.62440546 9.43927585 62.1875 9.43359375 C60.49503367 9.43815332 58.80256919 9.44345821 57.11010742 9.44947815 C53.56258625 9.45841687 50.01529012 9.45597718 46.46777344 9.44604492 C41.91771198 9.43454819 37.36842577 9.45477314 32.81846619 9.48396206 C29.3234767 9.50229141 25.82867416 9.50203828 22.33364868 9.49632454 C20.65588289 9.49617095 18.97810472 9.50224589 17.30038452 9.51461601 C14.95626905 9.5294651 12.61360085 9.51889603 10.26953125 9.50170898 C9.2267955 9.51621094 9.2267955 9.51621094 8.16299438 9.53100586 C5.08043867 9.48358529 3.39953155 9.35138999 1.0456543 7.28114319 C0 5 0 5 0 0 Z M2 1 C2.49152482 5.86132495 2.49152482 5.86132495 5 8 C8.08887856 8.32207654 8.08887856 8.32207654 11.77294922 8.29052734 C12.46907318 8.29724457 13.16519714 8.30396179 13.88241577 8.31088257 C16.18991177 8.32992236 18.49711778 8.33378986 20.8046875 8.3359375 C22.40650554 8.34236183 24.00832239 8.34908991 25.61013794 8.35610962 C28.97107666 8.36809771 32.33191249 8.37178893 35.69287109 8.37060547 C39.99958492 8.37040231 44.30563858 8.39769354 48.61219597 8.43214989 C51.92191598 8.45438999 55.23147649 8.45844389 58.54126358 8.45738602 C60.12890013 8.45974676 61.71654076 8.46859696 63.30410385 8.48405075 C65.52595924 8.50365141 67.74638321 8.49789737 69.96826172 8.48583984 C71.23241913 8.48868988 72.49657654 8.49153992 73.79904175 8.49447632 C77.52837933 7.91837723 78.69415774 6.91036208 81 4 C80.505 2.515 80.505 2.515 80 1 C54.26 1 28.52 1 2 1 Z " fill="#BF712C" transform="translate(275,169)"/>
<path d="M0 0 C7.02908999 -0.10147154 14.05799089 -0.17149565 21.08764648 -0.21972656 C23.47866881 -0.23983418 25.86964201 -0.2671243 28.26049805 -0.30175781 C31.69852831 -0.35031151 35.13590804 -0.37297774 38.57421875 -0.390625 C39.64210129 -0.41127014 40.70998383 -0.43191528 41.81022644 -0.45318604 C49.21997617 -0.45542322 49.21997617 -0.45542322 53.17919922 1.85620117 C55.49625461 4.5842869 55.58683869 6.02172789 55.4375 9.5625 C55.41558594 10.51253906 55.39367187 11.46257812 55.37109375 12.44140625 C55 15 55 15 53 18 C51.51423365 13.98843085 52.19252122 13.51869696 54 9 C47.73 8.34 41.46 7.68 35 7 C35.66 5.02 36.32 3.04 37 1 C24.79 1 12.58 1 0 1 C0 0.67 0 0.34 0 0 Z " fill="#613B33" transform="translate(320,114)"/>
<path d="M0 0 C14.19642857 -0.53571429 14.19642857 -0.53571429 17.8125 1.875 C20.45995936 4.44681767 20.93743579 5.26487057 21.25 8.9375 C21 12 21 12 19.5 13.875 C19.005 14.24625 18.51 14.6175 18 15 C17.34 13.02 16.68 11.04 16 9 C15.649375 9.66 15.29875 10.32 14.9375 11 C13 13 13 13 9.3125 13.25 C8.219375 13.1675 7.12625 13.085 6 13 C6 10.36 6 7.72 6 5 C7.98 5 9.96 5 12 5 C12 3.68 12 2.36 12 1 C8.37 1 4.74 1 1 1 C1 9.58 1 18.16 1 27 C0.67 27 0.34 27 0 27 C0 18.09 0 9.18 0 0 Z " fill="#7B5F55" transform="translate(394,242)"/>
<path d="M0 0 C1.9375 0.75 1.9375 0.75 4 2 C4.75 4.125 4.75 4.125 5 6 C4.34 6 3.68 6 3 6 C2.855625 6.61875 2.71125 7.2375 2.5625 7.875 C2 10 2 10 1 12 C3.18756024 11.18974117 3.18756024 11.18974117 3.75 9 C5 7 5 7 8.125 6.25 C9.07375 6.1675 10.0225 6.085 11 6 C7.49102731 10.18423892 3.91939465 14.19588166 0 18 C-5.29158974 16.59928507 -7.77478044 13.14512755 -11 9 C-8.125 9.25 -8.125 9.25 -5 10 C-3.625 12.0625 -3.625 12.0625 -3 14 C-2.67 13.67 -2.34 13.34 -2 13 C-3.76074349 7.98865315 -5.61735487 5.92176342 -10 3 C-10.33 2.34 -10.66 1.68 -11 1 C-10.28972656 1.01160156 -9.57945312 1.02320313 -8.84765625 1.03515625 C-7.92855469 1.04417969 -7.00945312 1.05320313 -6.0625 1.0625 C-4.68771484 1.07990234 -4.68771484 1.07990234 -3.28515625 1.09765625 C-1.03406673 1.25949049 -1.03406673 1.25949049 0 0 Z " fill="#653821" transform="translate(315,134)"/>
<path d="M0 0 C1.98 0 3.96 0 6 0 C6 8.91 6 17.82 6 27 C4.02 27 2.04 27 0 27 C0 18.09 0 9.18 0 0 Z " fill="#614034" transform="translate(182,242)"/>
<path d="M0 0 C11.17847534 -1.0735426 11.17847534 -1.0735426 15.64453125 1.55859375 C17.57249065 3.28507271 19.33119655 5.02365271 21 7 C19.68 7.99 18.36 8.98 17 10 C17.33 11.32 17.66 12.64 18 14 C19.32 14.33 20.64 14.66 22 15 C22.12375 15.804375 22.2475 16.60875 22.375 17.4375 C22.58125 18.283125 22.7875 19.12875 23 20 C23.66 20.33 24.32 20.66 25 21 C21.26436753 21 20.79570323 20.20375128 18.1640625 17.67578125 C17.42929687 16.97646484 16.69453125 16.27714844 15.9375 15.55664062 C15.174375 14.81607422 14.41125 14.07550781 13.625 13.3125 C12.49191406 12.2306543 12.49191406 12.2306543 11.3359375 11.12695312 C7.50979379 7.46469144 3.72645339 3.76356946 0 0 Z " fill="#D6911E" transform="translate(285,138)"/>
<path d="M0 0 C7 0 7 0 9.4375 0.9375 C11.64493213 3.85131041 11.39547534 6.27147959 11.3359375 9.84375 C11 12 11 12 9 15 C6.00539996 15.7081094 3.08264211 15.77981128 0 16 C0 10.72 0 5.44 0 0 Z " fill="#F9F7F6" transform="translate(230,248)"/>
<path d="M0 0 C3.0625 1.5 3.0625 1.5 5 3 C4.67 4.32 4.34 5.64 4 7 C1.97642677 7 -0.04790529 6.99837303 -2.0703125 6.9296875 C-4.04631417 6.8770943 -6.02432621 6.93626859 -8 7 C-10.29575603 9.29575603 -10.32339599 10.00842525 -10.625 13.125 C-10.810625 15.043125 -10.810625 15.043125 -11 17 C-11.33 17 -11.66 17 -12 17 C-12 15.02 -12 13.04 -12 11 C-12.99 10.67 -13.98 10.34 -15 10 C-15.66 12.97 -16.32 15.94 -17 19 C-17.33 19 -17.66 19 -18 19 C-18.35666988 13.98680673 -18.56305357 10.14696097 -16.3125 5.5625 C-11.44809606 0.17221456 -7.09499198 -1.00074028 0 0 Z " fill="#72554C" transform="translate(357,242)"/>
<path d="M0 0 C1.98 0 3.96 0 6 0 C6.66 2.97 7.32 5.94 8 9 C6.68 9.33 5.36 9.66 4 10 C4.33 10.598125 4.66 11.19625 5 11.8125 C6 14 6 14 6 17 C3.69 17.33 1.38 17.66 -1 18 C-1.33 16.68 -1.66 15.36 -2 14 C-2.66 14 -3.32 14 -4 14 C-4 14.66 -4 15.32 -4 16 C-4.66 16 -5.32 16 -6 16 C-4.43551329 10.3856009 -2.83604813 5.13189662 0 0 Z " fill="#644439" transform="translate(259,242)"/>
<path d="M0 0 C0.66 0 1.32 0 2 0 C1.67 1.32 1.34 2.64 1 4 C0.34 4 -0.32 4 -1 4 C-1 5.65 -1 7.3 -1 9 C-0.34 9 0.32 9 1 9 C3.625 11.25 3.625 11.25 6 14 C6 15.32 6 16.64 6 18 C2.0309541 16.82732735 -0.73926951 15.49989338 -4 13 C-6.04105639 12.11306697 -6.04105639 12.11306697 -8 12 C-8.66 12.66 -9.32 13.32 -10 14 C-10 13.34 -10 12.68 -10 12 C-10.66 11.67 -11.32 11.34 -12 11 C-11.34 10.67 -10.68 10.34 -10 10 C-9.31867549 8.33927151 -8.65257873 6.672233 -8 5 C-6 3 -6 3 -3.4375 2.5 C-2.633125 2.335 -1.82875 2.17 -1 2 C-0.67 1.34 -0.34 0.68 0 0 Z " fill="#5B3523" transform="translate(339,143)"/>
<path d="M0 0 C0.66 0 1.32 0 2 0 C4.11395127 3.43517081 4.71879448 6.00669734 4 10 C2.02448419 12.62427988 -0.08709302 14.47606604 -3 16 C-6.9375 15.875 -6.9375 15.875 -10 15 C-10.625 12.625 -10.625 12.625 -11 10 C-10.34 9.34 -9.68 8.68 -9 8 C-9 8.66 -9 9.32 -9 10 C-7.68 10.33 -6.36 10.66 -5 11 C-4.731875 10.4225 -4.46375 9.845 -4.1875 9.25 C-3 7 -3 7 -1.375 4.9375 C0.2893735 2.9882168 0.2893735 2.9882168 0 0 Z " fill="#664439" transform="translate(349,208)"/>
<path d="M0 0 C0.66 0.33 1.32 0.66 2 1 C2.70603404 4.74198039 3 8.18792739 3 12 C3.96432076 13.68756133 4.96210419 15.35666496 6 17 C6 17.66 6 18.32 6 19 C3.69 19 1.38 19 -1 19 C-1.24234375 18.44570313 -1.4846875 17.89140625 -1.734375 17.3203125 C-2.06953125 16.59585937 -2.4046875 15.87140625 -2.75 15.125 C-3.07484375 14.40570313 -3.3996875 13.68640625 -3.734375 12.9453125 C-5.21929686 10.6629326 -6.50415408 9.99624102 -9 9 C-9 8.34 -9 7.68 -9 7 C-8.01 6.67 -7.02 6.34 -6 6 C-6 6.66 -6 7.32 -6 8 C-4.68 8.33 -3.36 8.66 -2 9 C-2 8.34 -2 7.68 -2 7 C-1.45812401 4.60026347 -0.77959573 2.33878718 0 0 Z " fill="#633F34" transform="translate(409,250)"/>
<path d="M0 0 C4.58151466 1.52717155 7.79607006 3.59214011 10 8 C10.06950541 9.54023996 10.08452357 11.08334988 10.0625 12.625 C10.05347656 13.44226563 10.04445312 14.25953125 10.03515625 15.1015625 C10.02355469 15.72804688 10.01195312 16.35453125 10 17 C9.67 17 9.34 17 9 17 C9 14.69 9 12.38 9 10 C8.01 10.33 7.02 10.66 6 11 C6 12.98 6 14.96 6 17 C5.34 17.33 4.68 17.66 4 18 C3.34 18.99 2.68 19.98 2 21 C1.67 20.34 1.34 19.68 1 19 C1.33 18.34 1.66 17.68 2 17 C2.23502905 14.85753682 2.23502905 14.85753682 2.25 12.5 C2.27578125 11.7059375 2.3015625 10.911875 2.328125 10.09375 C2.21984375 9.4028125 2.1115625 8.711875 2 8 C-1.44450737 5.70366176 -3.93812283 5.45983515 -8 5 C-8 4.67 -8 4.34 -8 4 C-4.535 3.505 -4.535 3.505 -1 3 C-0.67 2.01 -0.34 1.02 0 0 Z " fill="#6C4A3F" transform="translate(238,243)"/>
<path d="M0 0 C0.87454834 0.00523682 1.74909668 0.01047363 2.65014648 0.01586914 C3.59438477 0.0190918 4.53862305 0.02231445 5.51147461 0.02563477 C6.50469727 0.03401367 7.49791992 0.04239258 8.52124023 0.05102539 C9.51833008 0.05553711 10.51541992 0.06004883 11.54272461 0.06469727 C14.01478872 0.07652532 16.48673541 0.0930069 18.95874023 0.11352539 C18.95874023 0.44352539 18.95874023 0.77352539 18.95874023 1.11352539 C14.99874023 1.77352539 11.03874023 2.43352539 6.95874023 3.11352539 C6.62874023 11.03352539 6.29874023 18.95352539 5.95874023 27.11352539 C5.62874023 27.11352539 5.29874023 27.11352539 4.95874023 27.11352539 C4.95874023 20.18352539 4.95874023 13.25352539 4.95874023 6.11352539 C2.31874023 6.11352539 -0.32125977 6.11352539 -3.04125977 6.11352539 C-3.08398077 4.44740634 -3.08189809 2.77969654 -3.04125977 1.11352539 C-2.04125977 0.11352539 -2.04125977 0.11352539 0 0 Z " fill="#785E54" transform="translate(420.041259765625,241.886474609375)"/>
<path d="M0 0 C5.28 0 10.56 0 16 0 C16 0.66 16 1.32 16 2 C15.34 2 14.68 2 14 2 C14 4.31 14 6.62 14 9 C13.01 9 12.02 9 11 9 C11 7.02 11 5.04 11 3 C9.35 3.33 7.7 3.66 6 4 C6 4.66 6 5.32 6 6 C4.68 6 3.36 6 2 6 C2 6.66 2 7.32 2 8 C3.32 8.33 4.64 8.66 6 9 C4.02 9 2.04 9 0 9 C0 6.03 0 3.06 0 0 Z " fill="#EAE5E2" transform="translate(336,285)"/>
<path d="M0 0 C2.31 0 4.62 0 7 0 C7.99 3.3 8.98 6.6 10 10 C9.01 9.67 8.02 9.34 7 9 C7 11.64 7 14.28 7 17 C4.69 17 2.38 17 0 17 C0.49230769 9.61538462 0.49230769 9.61538462 3.0625 6.5 C3.701875 6.005 4.34125 5.51 5 5 C4.67 4.34 4.34 3.68 4 3 C2.35 3.33 0.7 3.66 -1 4 C-0.67 2.68 -0.34 1.36 0 0 Z " fill="#705248" transform="translate(312,242)"/>
<path d="M0 0 C2.97 0 5.94 0 9 0 C9 1.32 9 2.64 9 4 C6.36 4.33 3.72 4.66 1 5 C0.67 9.62 0.34 14.24 0 19 C-0.99 19.33 -1.98 19.66 -3 20 C-4.86916794 18.13083206 -4.21688008 15.12555426 -4.25 12.625 C-4.27578125 11.46226562 -4.3015625 10.29953125 -4.328125 9.1015625 C-3.96691753 5.68729193 -3.54516644 5.09526328 -1 3 C-0.67 2.01 -0.34 1.02 0 0 Z " fill="#583126" transform="translate(229,243)"/>
<path d="M0 0 C6.15234375 -0.09765625 6.15234375 -0.09765625 8 0 C9 1 9 1 9.125 4 C9 7 9 7 8 8 C6.03630847 8.0940067 4.06920801 8.11743381 2.10327148 8.11352539 C0.84203964 8.11344986 -0.4191922 8.11337433 -1.71864319 8.11329651 C-3.10539794 8.1081891 -4.49215229 8.10297309 -5.87890625 8.09765625 C-7.28995209 8.09579201 -8.70099857 8.09436814 -10.11204529 8.09336853 C-13.83240535 8.08954379 -17.5527266 8.0797139 -21.27307129 8.06866455 C-25.06680781 8.05844948 -28.86055058 8.05387071 -32.65429688 8.04882812 C-40.10288231 8.03809158 -47.55143572 8.0210157 -55 8 C-55 7.67 -55 7.34 -55 7 C-34.87 6.67 -14.74 6.34 6 6 C5.505 3.525 5.505 3.525 5 1 C3.35 1 1.7 1 0 1 C0 0.67 0 0.34 0 0 Z " fill="#826A61" transform="translate(349,194)"/>
<path d="M0 0 C1.98 0 3.96 0 6 0 C8.43028322 4.25299564 9.32598901 7.11016479 9 12 C9 12.99 9 13.98 9 15 C8.34 15 7.68 15 7 15 C7 14.34 7 13.68 7 13 C6.34 13 5.68 13 5 13 C4.34 11.02 3.68 9.04 3 7 C1.68 7.33 0.36 7.66 -1 8 C-0.67 5.36 -0.34 2.72 0 0 Z " fill="#5D3629" transform="translate(374,242)"/>
<path d="M0 0 C1.125 3.75 1.125 3.75 0 6 C0.99 6 1.98 6 3 6 C3.33 5.34 3.66 4.68 4 4 C7 10.5 7 10.5 7 15 C4.69 15 2.38 15 0 15 C-0.33 13.68 -0.66 12.36 -1 11 C-1.99 11.33 -2.98 11.66 -4 12 C-2.66666667 8 -1.33333333 4 0 0 Z " fill="#64433A" transform="translate(373,244)"/>
<path d="M0 0 C1.4540625 0.0309375 1.4540625 0.0309375 2.9375 0.0625 C0.9575 1.0525 0.9575 1.0525 -1.0625 2.0625 C-1.0625 3.3825 -1.0625 4.7025 -1.0625 6.0625 C-0.0725 6.3925 0.9175 6.7225 1.9375 7.0625 C1.9375 6.4025 1.9375 5.7425 1.9375 5.0625 C3.2575 5.3925 4.5775 5.7225 5.9375 6.0625 C6.2675 4.0825 6.5975 2.1025 6.9375 0.0625 C8.9175 0.0625 10.8975 0.0625 12.9375 0.0625 C11.6175 0.3925 10.2975 0.7225 8.9375 1.0625 C8.9375 1.7225 8.9375 2.3825 8.9375 3.0625 C10.2575 3.0625 11.5775 3.0625 12.9375 3.0625 C12.9375 3.7225 12.9375 4.3825 12.9375 5.0625 C11.6175 5.0625 10.2975 5.0625 8.9375 5.0625 C8.9375 5.7225 8.9375 6.3825 8.9375 7.0625 C10.5875 7.0625 12.2375 7.0625 13.9375 7.0625 C13.9375 7.7225 13.9375 8.3825 13.9375 9.0625 C11.49933415 9.1434723 9.06385616 9.20296972 6.625 9.25 C5.58956055 9.28770508 5.58956055 9.28770508 4.53320312 9.32617188 C-0.57023826 9.40013479 -0.57023826 9.40013479 -3.02734375 7.71484375 C-4.46744795 5.41611139 -4.34202053 3.71794505 -4.0625 1.0625 C-3.0625 0.0625 -3.0625 0.0625 0 0 Z " fill="#A4938A" transform="translate(391.0625,285.9375)"/>
<path d="M0 0 C1.77297142 2.65945714 2.93068972 4.995958 4.125 7.9375 C4.47820312 8.79214844 4.83140625 9.64679688 5.1953125 10.52734375 C6 13 6 13 6 17 C4.02 17 2.04 17 0 17 C-0.33 15.35 -0.66 13.7 -1 12 C-4.63 12 -8.26 12 -12 12 C-12 11.67 -12 11.34 -12 11 C-10.1746875 10.7834375 -10.1746875 10.7834375 -8.3125 10.5625 C-5.17329623 10.17219047 -2.0924866 9.67648144 1 9 C0.67 8.34 0.34 7.68 0 7 C-0.04022391 4.6670134 -0.04320247 2.33293334 0 0 Z " fill="#74554B" transform="translate(322,252)"/>
<path d="M0 0 C1.32 0.33 2.64 0.66 4 1 C4 6.61 4 12.22 4 18 C2.35 18 0.7 18 -1 18 C-1 17.01 -1 16.02 -1 15 C-1.66 14.34 -2.32 13.68 -3 13 C-3 12.34 -3 11.68 -3 11 C-2.34 11 -1.68 11 -1 11 C-0.67 7.37 -0.34 3.74 0 0 Z " fill="#593327" transform="translate(213,251)"/>
<path d="M0 0 C1.98 0 3.96 0 6 0 C6 8.91 6 17.82 6 27 C5.67 27 5.34 27 5 27 C4.95101562 25.85660156 4.90203125 24.71320313 4.8515625 23.53515625 C4.77654811 22.04424527 4.70099972 20.55336108 4.625 19.0625 C4.5940625 18.30775391 4.563125 17.55300781 4.53125 16.77539062 C4.4273685 14.84492605 4.22104386 12.92057919 4 11 C3.34 10.67 2.68 10.34 2 10 C1.67 9.67 1.34 9.34 1 9 C1 10.65 1 12.3 1 14 C0.67 14 0.34 14 0 14 C0 9.38 0 4.76 0 0 Z " fill="#6A4A3F" transform="translate(212,242)"/>
<path d="M0 0 C4.29 0 8.58 0 13 0 C13.33 1.32 13.66 2.64 14 4 C15.9837767 5.28436734 15.9837767 5.28436734 18 6 C17.50628906 6.40992188 17.01257813 6.81984375 16.50390625 7.2421875 C15.86324219 7.78101563 15.22257812 8.31984375 14.5625 8.875 C13.92441406 9.40867188 13.28632813 9.94234375 12.62890625 10.4921875 C10.89194996 11.9222757 10.89194996 11.9222757 10 14 C10.5775 14.226875 11.155 14.45375 11.75 14.6875 C14.5663661 16.33038023 16.08077114 18.39533227 18 21 C15.50638429 19.79618552 13.31856917 18.54571278 11 17 C11 16.34 11 15.68 11 15 C10.34 15 9.68 15 9 15 C9 13.35 9 11.7 9 10 C9.66 9.67 10.32 9.34 11 9 C11.33 8.01 11.66 7.02 12 6 C11.34 6 10.68 6 10 6 C9.67 6.99 9.34 7.98 9 9 C7.68 8.67 6.36 8.34 5 8 C6.28965176 6.62437146 7.62689293 5.29233607 9 4 C9.66 4 10.32 4 11 4 C11 3.34 11 2.68 11 2 C7.37 1.67 3.74 1.34 0 1 C0 0.67 0 0.34 0 0 Z " fill="#6A3A1A" transform="translate(329,137)"/>
<path d="M0 0 C4.29 0 8.58 0 13 0 C13.33 0.99 13.66 1.98 14 3 C9.545 3.495 9.545 3.495 5 4 C5 5.98 5 7.96 5 10 C4.01 10.33 3.02 10.66 2 11 C1.34 10.67 0.68 10.34 0 10 C0 6.7 0 3.4 0 0 Z " fill="#593227" transform="translate(279,243)"/>
<path d="M0 0 C1.9375 0.75 1.9375 0.75 4 2 C4.75 4.125 4.75 4.125 5 6 C0.62689805 9.03687636 0.62689805 9.03687636 -2.125 8.875 C-4.2566241 7.88024209 -5.414965 6.72286414 -7 5 C-7.99 4.34 -8.98 3.68 -10 3 C-10.33 2.34 -10.66 1.68 -11 1 C-10.28972656 1.01160156 -9.57945312 1.02320313 -8.84765625 1.03515625 C-7.92855469 1.04417969 -7.00945312 1.05320313 -6.0625 1.0625 C-4.68771484 1.07990234 -4.68771484 1.07990234 -3.28515625 1.09765625 C-1.03406673 1.25949049 -1.03406673 1.25949049 0 0 Z " fill="#6A3921" transform="translate(315,134)"/>
<path d="M0 0 C0.66 1.32 1.32 2.64 2 4 C2.99 4 3.98 4 5 4 C4 7 4 7 2 9 C2.66 9.33 3.32 9.66 4 10 C4 9.34 4 8.68 4 8 C9.445 7.505 9.445 7.505 15 7 C15.33 8.32 15.66 9.64 16 11 C15 12 15 12 11.62109375 12.09765625 C10.22652923 12.09098369 8.83198257 12.07902532 7.4375 12.0625 C6.37112305 12.05573242 6.37112305 12.05573242 5.28320312 12.04882812 C3.52209987 12.03700864 1.76103964 12.01907263 0 12 C0 8.04 0 4.08 0 0 Z " fill="#5A382C" transform="translate(279,257)"/>
<path d="M0 0 C0.66 0 1.32 0 2 0 C2.268125 0.639375 2.53625 1.27875 2.8125 1.9375 C3.88667752 4.33131686 3.88667752 4.33131686 7 5 C7 5.66 7 6.32 7 7 C7.66 7 8.32 7 9 7 C9.17835515 11.54805635 8.99785435 14.8794254 7 19 C3.2237072 16.26245823 2.77530256 12.1020289 1.8125 7.8125 C1.63525391 7.06291016 1.45800781 6.31332031 1.27539062 5.54101562 C0.84063737 3.69625181 0.41902724 1.84839934 0 0 Z " fill="#634136" transform="translate(264,164)"/>
<path d="M0 0 C3.96 0 7.92 0 12 0 C12 0.33 12 0.66 12 1 C9.69 1.33 7.38 1.66 5 2 C4.87625 2.598125 4.7525 3.19625 4.625 3.8125 C4 6 4 6 2 9 C1.6373883 10.92744369 1.6373883 10.92744369 1.5859375 13.01171875 C1.54726562 13.76904297 1.50859375 14.52636719 1.46875 15.30664062 C1.4378125 16.09232422 1.406875 16.87800781 1.375 17.6875 C1.33632812 18.48478516 1.29765625 19.28207031 1.2578125 20.10351562 C1.16367506 22.06863475 1.08075368 24.0342854 1 26 C1.88751953 25.87431641 1.88751953 25.87431641 2.79296875 25.74609375 C7.09939457 25.19110576 10.75552644 24.76773348 15 26 C15 26.33 15 26.66 15 27 C10.05 27 5.1 27 0 27 C0 18.09 0 9.18 0 0 Z " fill="#684A3F" transform="translate(224,242)"/>
<path d="M0 0 C4.95 0 9.9 0 15 0 C15 0.66 15 1.32 15 2 C14.01 2.33 13.02 2.66 12 3 C12 5.31 12 7.62 12 10 C10.02 9.34 8.04 8.68 6 8 C6 6.35 6 4.7 6 3 C4.02 3 2.04 3 0 3 C0 2.01 0 1.02 0 0 Z " fill="#5A3529" transform="translate(273,133)"/>
<path d="M0 0 C1.65 1.65 3.3 3.3 5 5 C3.02 5.99 3.02 5.99 1 7 C1.33 8.32 1.66 9.64 2 11 C3.32 11.33 4.64 11.66 6 12 C6.12375 12.804375 6.2475 13.60875 6.375 14.4375 C6.58125 15.283125 6.7875 16.12875 7 17 C7.66 17.33 8.32 17.66 9 18 C5.36535685 18 4.97159118 17.37451463 2.42578125 14.9375 C1.75869141 14.30585938 1.09160156 13.67421875 0.40429688 13.0234375 C-0.28599609 12.35570312 -0.97628906 11.68796875 -1.6875 11 C-2.38939453 10.33226562 -3.09128906 9.66453125 -3.81445312 8.9765625 C-5.54940562 7.32422679 -7.27747207 5.6652685 -9 4 C-8.34 3.67 -7.68 3.34 -7 3 C-6.34 3.33 -5.68 3.66 -5 4 C-5 4.66 -5 5.32 -5 6 C-3.35 5.67 -1.7 5.34 0 5 C0 3.35 0 1.7 0 0 Z " fill="#CB892A" transform="translate(301,141)"/>
<path d="M0 0 C4.55555556 0.55555556 4.55555556 0.55555556 6 2 C6.125 5 6.125 5 6 8 C5 9 5 9 2.0625 9.1875 C-1 9 -1 9 -3 7 C-2.67028521 3.70285207 -2.3773161 2.3773161 0 0 Z " fill="#6F5E56" transform="translate(220,285)"/>
<path d="M0 0 C0.66 0.33 1.32 0.66 2 1 C2.625 4.0625 2.625 4.0625 3 7 C6.3 6.67 9.6 6.34 13 6 C12.67 7.32 12.34 8.64 12 10 C9.27704162 10.90765279 7.72892318 11.10945852 4.9375 11.0625 C2.95847298 11.03108687 0.97927631 11 -1 11 C-1.66 11 -2.32 11 -3 11 C-3 9.35 -3 7.7 -3 6 C-2.34 6 -1.68 6 -1 6 C-1 5.34 -1 4.68 -1 4 C-0.34 4 0.32 4 1 4 C0.67 2.68 0.34 1.36 0 0 Z " fill="#583125" transform="translate(256,252)"/>
<path d="M0 0 C0.66 0 1.32 0 2 0 C2 4.95 2 9.9 2 15 C0.35 15 -1.3 15 -3 15 C-3.08142927 13.2507786 -3.13938541 11.50045458 -3.1875 9.75 C-3.22230469 8.77546875 -3.25710937 7.8009375 -3.29296875 6.796875 C-2.95840784 3.60293349 -2.23334367 2.27119696 0 0 Z " fill="#563023" transform="translate(198,254)"/>
<path d="M0 0 C3 0 3 0 5.25 2.0625 C7 5 7 5 7 8.6875 C6 12 6 12 3.9375 13.4375 C2.9784375 13.7159375 2.9784375 13.7159375 2 14 C1.87625 13.360625 1.7525 12.72125 1.625 12.0625 C1.41875 11.381875 1.2125 10.70125 1 10 C0.34 9.67 -0.32 9.34 -1 9 C-0.67 7.68 -0.34 6.36 0 5 C0.66 5 1.32 5 2 5 C1.34 3.35 0.68 1.7 0 0 Z " fill="#69463A" transform="translate(293,254)"/>
<path d="M0 0 C0.99 0 1.98 0 3 0 C3 0.66 3 1.32 3 2 C3.66 2 4.32 2 5 2 C4.69201674 3.48011371 4.378482 4.95907325 4.0625 6.4375 C3.88847656 7.26121094 3.71445312 8.08492188 3.53515625 8.93359375 C3 11 3 11 2 12 C0.33382885 12.04063832 -1.33388095 12.042721 -3 12 C-2.49202991 7.6822542 -1.80317221 3.96697886 0 0 Z " fill="#5B362C" transform="translate(306,257)"/>
<path d="M0 0 C0.66 0 1.32 0 2 0 C2.33 0.99 2.66 1.98 3 3 C3.66 3.66 4.32 4.32 5 5 C4.34 5.66 3.68 6.32 3 7 C2.54188325 8.97235333 2.54188325 8.97235333 2.375 11.125 C2.189375 13.043125 2.189375 13.043125 2 15 C1.67 15 1.34 15 1 15 C1 13.02 1 11.04 1 9 C0.01 8.67 -0.98 8.34 -2 8 C-2.66 10.97 -3.32 13.94 -4 17 C-4.33 17 -4.66 17 -5 17 C-5.47657187 10.3015176 -5.41492287 6.21763612 -1 1 C-0.67 0.67 -0.34 0.34 0 0 Z " fill="#71554A" transform="translate(344,244)"/>
<path d="M0 0 C0.33 0 0.66 0 1 0 C1 1.65 1 3.3 1 5 C1.33 4.34 1.66 3.68 2 3 C2.84304687 3.23009766 2.84304687 3.23009766 3.703125 3.46484375 C6.05838878 4.01360419 8.34548104 4.31497599 10.75 4.5625 C11.54921875 4.64628906 12.3484375 4.73007812 13.171875 4.81640625 C14.07679688 4.90728516 14.07679688 4.90728516 15 5 C15 5.33 15 5.66 15 6 C11.37 6 7.74 6 4 6 C3.67 7.65 3.34 9.3 3 11 C1.02 11 -0.96 11 -3 11 C-2.44894091 7.0507432 -1.61064629 3.65079826 0 0 Z " fill="#6F5045" transform="translate(252,258)"/>
<path d="M0 0 C3.33727786 1.17255709 5.77437487 2.18868404 8 5 C8 5.66 8 6.32 8 7 C3.38 7 -1.24 7 -6 7 C-4.02 4.69 -2.04 2.38 0 0 Z " fill="#B86626" transform="translate(333,155)"/>
<path d="M0 0 C2.64511767 1.20232621 4.1913849 2.73225721 6.0625 4.9375 C6.0625 5.5975 6.0625 6.2575 6.0625 6.9375 C1.7725 6.9375 -2.5175 6.9375 -6.9375 6.9375 C-3.41369048 -0.11011905 -3.41369048 -0.11011905 0 0 Z " fill="#B8612A" transform="translate(293.9375,155.0625)"/>
<path d="M0 0 C0.99 0 1.98 0 3 0 C3 2.97 3 5.94 3 9 C2.34 9 1.68 9 1 9 C0.67 8.01 0.34 7.02 0 6 C-0.33 6.66 -0.66 7.32 -1 8 C-1.99 7.67 -2.98 7.34 -4 7 C-4.33 7.66 -4.66 8.32 -5 9 C-5.66 9 -6.32 9 -7 9 C-7 6.36 -7 3.72 -7 1 C-6.01 1 -5.02 1 -4 1 C-3.34 1.99 -2.68 2.98 -2 4 C-1.34 2.68 -0.68 1.36 0 0 Z " fill="#7C625A" transform="translate(295,285)"/>
<path d="M0 0 C2.64 0 5.28 0 8 0 C8.04254356 1.99954746 8.04080783 4.00041636 8 6 C7 7 7 7 3.4375 7.0625 C2.303125 7.041875 1.16875 7.02125 0 7 C0 4.69 0 2.38 0 0 Z " fill="#F2EFEE" transform="translate(400,248)"/>
<path d="M0 0 C0.515625 0.391875 1.03125 0.78375 1.5625 1.1875 C-0.1875 5.0625 -0.1875 5.0625 -2.4375 6.1875 C-5.1098621 6.32165472 -7.76000488 6.23068541 -10.4375 6.1875 C-10.375 4.375 -10.375 4.375 -9.4375 2.1875 C-3.50743007 -1.16914336 -3.50743007 -1.16914336 0 0 Z " fill="#5C3429" transform="translate(360.4375,262.8125)"/>
<path d="M0 0 C3.66223158 0.49489616 5.66993926 1.05676537 8 4 C8 4.33 8 4.66 8 5 C9.65 5.33 11.3 5.66 13 6 C13 6.33 13 6.66 13 7 C11.04196493 7.05389087 9.08351091 7.09274217 7.125 7.125 C6.03445313 7.14820313 4.94390625 7.17140625 3.8203125 7.1953125 C1 7 1 7 -1 5 C-0.625 2.375 -0.625 2.375 0 0 Z " fill="#633F34" transform="translate(276,194)"/>
<path d="M0 0 C0 1.98 0 3.96 0 6 C-3.875 4.125 -3.875 4.125 -5 3 C-7.67058851 2.85884839 -10.32432238 2.95752893 -13 3 C-13 4.65 -13 6.3 -13 8 C-14.5625 6.25 -14.5625 6.25 -16 4 C-15.58984375 1.859375 -15.58984375 1.859375 -15 0 C-12.87562788 -0.19448477 -10.75046809 -0.38038289 -8.625 -0.5625 C-7.44164062 -0.66691406 -6.25828125 -0.77132812 -5.0390625 -0.87890625 C-2 -1 -2 -1 0 0 Z " fill="#743A1F" transform="translate(280,136)"/>
<path d="M0 0 C1.66611905 -0.042721 3.33382885 -0.04063832 5 0 C6 1 6 1 6.09765625 2.84765625 C6.06510417 4.8984375 6.03255208 6.94921875 6 9 C4 9 2 9 0 9 C0 6.03 0 3.06 0 0 Z " fill="#755B53" transform="translate(314,285)"/>
<path d="M0 0 C0.66 0 1.32 0 2 0 C2.33 1.32 2.66 2.64 3 4 C3.763125 3.979375 4.52625 3.95875 5.3125 3.9375 C8 4 8 4 11 5 C10.67 5.99 10.34 6.98 10 8 C7.03 8 4.06 8 1 8 C-1 4 -1 4 -0.625 1.75 C-0.41875 1.1725 -0.2125 0.595 0 0 Z " fill="#583226" transform="translate(370,255)"/>
<path d="M0 0 C0 1.98 0 3.96 0 6 C-0.99 6.495 -0.99 6.495 -2 7 C-2 6.34 -2 5.68 -2 5 C-2.99 5 -3.98 5 -5 5 C-5 5.66 -5 6.32 -5 7 C-6.32 6.67 -7.64 6.34 -9 6 C-8.67 4.35 -8.34 2.7 -8 1 C-5.10765685 0.17361624 -3.11257569 0 0 0 Z " fill="#FBFCFA" transform="translate(398,286)"/>
<path d="M0 0 C2.375 -0.125 2.375 -0.125 5 0 C5.66 0.66 6.32 1.32 7 2 C6.625 4.125 6.625 4.125 6 6 C4.68 6.33 3.36 6.66 2 7 C2 7.66 2 8.32 2 9 C1.34 9 0.68 9 0 9 C0 6.03 0 3.06 0 0 Z " fill="#766058" transform="translate(356,285)"/>
<path d="M0 0 C1.875 0.3125 1.875 0.3125 4 1 C4.66 1.99 5.32 2.98 6 4 C6.33 2.68 6.66 1.36 7 0 C7.66 0 8.32 0 9 0 C9 2.64 9 5.28 9 8 C6 8 6 8 3.8125 6 C3.214375 5.34 2.61625 4.68 2 4 C2 5.32 2 6.64 2 8 C1.34 8 0.68 8 0 8 C0 5.36 0 2.72 0 0 Z " fill="#7A615A" transform="translate(230,286)"/>
<path d="M0 0 C2.31 0 4.62 0 7 0 C7.38218767 1.65614657 7.71395102 3.32457024 8 5 C7 6 7 6 3.4375 6.0625 C2.303125 6.041875 1.16875 6.02125 0 6 C0 4.02 0 2.04 0 0 Z " fill="#F6F4F1" transform="translate(285,258)"/>
<path d="M0 0 C3.875 1.875 3.875 1.875 5 3 C5.33 2.01 5.66 1.02 6 0 C6.66 0 7.32 0 8 0 C8 2.64 8 5.28 8 8 C4.125 6.125 4.125 6.125 3 5 C2.67 5.99 2.34 6.98 2 8 C1.34 8 0.68 8 0 8 C0 5.36 0 2.72 0 0 Z " fill="#6F554C" transform="translate(259,286)"/>
<path d="M0 0 C0.99 0.33 1.98 0.66 3 1 C3.33 2.98 3.66 4.96 4 7 C3.34 6.67 2.68 6.34 2 6 C-0.08333333 6.16666667 -0.08333333 6.16666667 -2 7 C-2.33 7.99 -2.66 8.98 -3 10 C-5.14720899 7.85279101 -5.5434221 6.92209857 -6 4 C-5.67 3.34 -5.34 2.68 -5 2 C-4.34 2 -3.68 2 -3 2 C-2.67 2.33 -2.34 2.66 -2 3 C-1.34 2.34 -0.68 1.68 0 1 C0 0.67 0 0.34 0 0 Z " fill="#654236" transform="translate(253,100)"/>
<path d="M0 0 C3.3 0 6.6 0 10 0 C10 1.32 10 2.64 10 4 C7.69 3.67 5.38 3.34 3 3 C2.67 3.66 2.34 4.32 2 5 C1.01 5.495 1.01 5.495 0 6 C-1 3 -1 3 0 0 Z " fill="#593429" transform="translate(346,243)"/>
<path d="M0 0 C0.33 0.66 0.66 1.32 1 2 C2.99285937 2.37366113 4.99363529 2.70740515 7 3 C8 4 9 5 10 6 C6.1496895 8.56687367 4.41430237 7.83288724 0 7 C-1.125 2.25 -1.125 2.25 0 0 Z " fill="#6C4A3E" transform="translate(339,216)"/>
<path d="M0 0 C1.32 0.33 2.64 0.66 4 1 C4.66 3.31 5.32 5.62 6 8 C3.36 8 0.72 8 -2 8 C-1.125 2.25 -1.125 2.25 0 0 Z " fill="#806962" transform="translate(378,286)"/>
<path d="M0 0 C2 2 2 2 2.1953125 4.1640625 C2.17210937 4.97617188 2.14890625 5.78828125 2.125 6.625 C2.10695312 7.44226563 2.08890625 8.25953125 2.0703125 9.1015625 C2.03550781 10.04128906 2.03550781 10.04128906 2 11 C1.67 11 1.34 11 1 11 C1 8.69 1 6.38 1 4 C0.01 4.33 -0.98 4.66 -2 5 C-2 6.98 -2 8.96 -2 11 C-2.99 11.495 -2.99 11.495 -4 12 C-4.66 12.99 -5.32 13.98 -6 15 C-7.3609623 12.2780754 -6.70366248 10.8168043 -6.0625 7.875 C-5.86785156 6.96492187 -5.67320312 6.05484375 -5.47265625 5.1171875 C-5.31667969 4.41851562 -5.16070312 3.71984375 -5 3 C-4.360625 2.87625 -3.72125 2.7525 -3.0625 2.625 C-2.0415625 2.315625 -2.0415625 2.315625 -1 2 C-0.67 1.34 -0.34 0.68 0 0 Z " fill="#7B5D52" transform="translate(246,249)"/>
<path d="M0 0 C0 4.35251187 -2.06165511 5.92809398 -5 9 C-7.25 9.6875 -7.25 9.6875 -9 10 C-9.33 10.99 -9.66 11.98 -10 13 C-11.65 13.33 -13.3 13.66 -15 14 C-15.33 12.02 -15.66 10.04 -16 8 C-15.67 8.99 -15.34 9.98 -15 11 C-8.43021291 8.81007097 -4.63040814 5.06338137 0 0 Z " fill="#6F3720" transform="translate(287,151)"/>
<path d="M0 0 C2.10353495 -0.0810206 4.20795952 -0.13919907 6.3125 -0.1875 C7.48425781 -0.22230469 8.65601563 -0.25710937 9.86328125 -0.29296875 C13 0 13 0 16 3 C13.03 3 10.06 3 7 3 C6.67 3.99 6.34 4.98 6 6 C3.97945196 4.35830472 1.97956942 2.69088222 0 1 C0 0.67 0 0.34 0 0 Z " fill="#C78932" transform="translate(285,138)"/>
<path d="M0 0 C1.88391785 3.26545761 2.49287967 6.28111761 3 10 C4.32 10.33 5.64 10.66 7 11 C4.69 11 2.38 11 0 11 C-1.05404945 7.01803543 -0.84098656 4.01804691 0 0 Z M-3 10 C-2.34 10 -1.68 10 -1 10 C-1 11.65 -1 13.3 -1 15 C-1.99 15.495 -1.99 15.495 -3 16 C-3 14.02 -3 12.04 -3 10 Z " fill="#663620" transform="translate(261,122)"/>
<path d="M0 0 C1.32 0.33 2.64 0.66 4 1 C4.66 3.31 5.32 5.62 6 8 C3.36 8 0.72 8 -2 8 C-1.47731534 5.23723823 -0.89130413 2.6739124 0 0 Z " fill="#735C54" transform="translate(304,286)"/>
<path d="M0 0 C0.99 0.33 1.98 0.66 3 1 C3.33 3.97 3.66 6.94 4 10 C1 11 1 11 -1.1875 10.0625 C-1.785625 9.711875 -2.38375 9.36125 -3 9 C-2.01 8.67 -1.02 8.34 0 8 C-0.185625 7.05125 -0.37125 6.1025 -0.5625 5.125 C-1 2 -1 2 0 0 Z " fill="#5C352B" transform="translate(319,251)"/>
<path d="M0 0 C0.66 0.99 1.32 1.98 2 3 C1.34 3 0.68 3 0 3 C0.515625 3.928125 1.03125 4.85625 1.5625 5.8125 C3 9 3 9 2 12 C0.02 12 -1.96 12 -4 12 C-3.52309796 10.37433394 -3.04340334 8.74948689 -2.5625 7.125 C-2.29566406 6.22007812 -2.02882813 5.31515625 -1.75390625 4.3828125 C-1 2 -1 2 0 0 Z " fill="#6D5045" transform="translate(368,257)"/>
<path d="M0 0 C2.31 0.33 4.62 0.66 7 1 C6.67 2.65 6.34 4.3 6 6 C4.02 6 2.04 6 0 6 C0 4.02 0 2.04 0 0 Z " fill="#F4F2EE" transform="translate(285,247)"/>
<path d="M0 0 C1.9375 1.875 1.9375 1.875 3 4 C3 4.66 3 5.32 3 6 C2.34 6 1.68 6 1 6 C1 5.34 1 4.68 1 4 C-2.34252724 3.92572162 -4.8035914 3.93453047 -8 5 C-8.66 3.68 -9.32 2.36 -10 1 C-6.41996227 -0.19334591 -3.75684104 -0.33543224 0 0 Z " fill="#5A3627" transform="translate(370,115)"/>
<path d="M0 0 C3.875 1.875 3.875 1.875 5 3 C5.12524459 4.78837622 5.17573676 6.58228214 5.1875 8.375 C5.20167969 9.35210937 5.21585937 10.32921875 5.23046875 11.3359375 C5 14 5 14 3 17 C1.9673198 14.21176345 1.95490707 13.1322726 2.9375 10.25 C3.288125 9.5075 3.63875 8.765 4 8 C2.35 7.67 0.7 7.34 -1 7 C0.32 6.67 1.64 6.34 3 6 C2.2575 5.071875 2.2575 5.071875 1.5 4.125 C0 2 0 2 0 0 Z " fill="#68483F" transform="translate(370,115)"/>
<path d="M0 0 C1.98 0 3.96 0 6 0 C6 0.66 6 1.32 6 2 C4.68 2 3.36 2 2 2 C2 2.66 2 3.32 2 4 C2.99 4 3.98 4 5 4 C5 4.66 5 5.32 5 6 C4.01 6 3.02 6 2 6 C2 6.66 2 7.32 2 8 C3.32 8.33 4.64 8.66 6 9 C4.02 9 2.04 9 0 9 C0 6.03 0 3.06 0 0 Z " fill="#7D665B" transform="translate(336,285)"/>
<path d="M0 0 C0.33 0.66 0.66 1.32 1 2 C1.66 2 2.32 2 3 2 C3 4.64 3 7.28 3 10 C0.525 9.01 0.525 9.01 -2 8 C-1.125 1.125 -1.125 1.125 0 0 Z " fill="#593125" transform="translate(342,251)"/>
<path d="M0 0 C2.9375 0.75 2.9375 0.75 6 2 C7.0625 3.9375 7.0625 3.9375 7 6 C5.6875 7.5 5.6875 7.5 4 9 C2.82425289 11.09989652 2.82425289 11.09989652 2 13 C1.875 6.25 1.875 6.25 3 4 C2.34 4 1.68 4 1 4 C0.67 2.68 0.34 1.36 0 0 Z " fill="#6D371B" transform="translate(268,145)"/>
<path d="M0 0 C2.12508244 3.18762365 2.5020163 5.26512223 3 9 C1.02 9 -0.96 9 -3 9 C-2.44271087 5.65626525 -1.64826111 2.96687001 0 0 Z " fill="#E6DDDA" transform="translate(377,250)"/>
<path d="M0 0 C3.96 0 7.92 0 12 0 C12 0.33 12 0.66 12 1 C9.69 1.33 7.38 1.66 5 2 C4.896875 2.639375 4.79375 3.27875 4.6875 3.9375 C4.460625 4.618125 4.23375 5.29875 4 6 C3.01 6.33 2.02 6.66 1 7 C0.67 4.69 0.34 2.38 0 0 Z " fill="#6F5247" transform="translate(224,242)"/>
<path d="M0 0 C0.99 0.66 1.98 1.32 3 2 C2.67 3.65 2.34 5.3 2 7 C-0.31 7 -2.62 7 -5 7 C-5 6.01 -5 5.02 -5 4 C-2.5 1.8125 -2.5 1.8125 0 0 Z " fill="#5B3529" transform="translate(292,216)"/>
<path d="M0 0 C2.875 0.25 2.875 0.25 6 1 C6.69937532 2.31647119 7.36729133 3.65022151 8 5 C10.55519921 5.81171228 10.55519921 5.81171228 13 6 C12.01 7.485 12.01 7.485 11 9 C5.70841026 7.59928507 3.22521956 4.14512755 0 0 Z " fill="#713E18" transform="translate(304,143)"/>
<path d="M0 0 C0.66 0.33 1.32 0.66 2 1 C2.73075648 3.3140622 3.40138258 5.64828869 4 8 C1.69 8 -0.62 8 -3 8 C-1.125 1.125 -1.125 1.125 0 0 Z " fill="#E7E1DD" transform="translate(315,251)"/>
<path d="M0 0 C0.33 0 0.66 0 1 0 C1 1.98 1 3.96 1 6 C4.465 5.505 4.465 5.505 8 5 C8 5.66 8 6.32 8 7 C6.14375 7.1546875 6.14375 7.1546875 4.25 7.3125 C0.7207134 7.73801682 -1.37160966 8.48112592 -4 11 C-4.33 9.35 -4.66 7.7 -5 6 C-3.68 5.67 -2.36 5.34 -1 5 C-0.67 3.35 -0.34 1.7 0 0 Z " fill="#705046" transform="translate(284,247)"/>
<path d="M0 0 C0.66 0.66 1.32 1.32 2 2 C1.175 2.763125 0.35 3.52625 -0.5 4.3125 C-3.34055197 6.75434142 -3.34055197 6.75434142 -3 10 C-5.92879371 9.37240135 -8.36095629 8.41377341 -11 7 C-10.67 6.34 -10.34 5.68 -10 5 C-7.03 5.495 -7.03 5.495 -4 6 C-3.67 5.01 -3.34 4.02 -3 3 C-1.4375 1.3125 -1.4375 1.3125 0 0 Z " fill="#5C3325" transform="translate(348,210)"/>
<path d="M0 0 C3.3 0 6.6 0 10 0 C8.68 1.65 7.36 3.3 6 5 C4.125 4.75 4.125 4.75 2 4 C1.34 2.68 0.68 1.36 0 0 Z " fill="#B06431" transform="translate(309,138)"/>
<path d="M0 0 C0.99 0 1.98 0 3 0 C3 2.31 3 4.62 3 7 C3.99 7 4.98 7 6 7 C6 7.66 6 8.32 6 9 C4.02 9 2.04 9 0 9 C0 6.03 0 3.06 0 0 Z " fill="#9A8983" transform="translate(366,285)"/>
<path d="M0 0 C0 1.32 0 2.64 0 4 C-2.64 4 -5.28 4 -8 4 C-8 3.34 -8 2.68 -8 2 C-8.66 1.67 -9.32 1.34 -10 1 C-6.52674819 -0.1577506 -3.63932552 -0.06866652 0 0 Z " fill="#563025" transform="translate(439,243)"/>
<path d="M0 0 C7.66816143 -0.76681614 7.66816143 -0.76681614 10.93359375 1.11328125 C12.5625 2.5 12.5625 2.5 15 5 C12 6 12 6 9.8125 5.0625 C9.214375 4.711875 8.61625 4.36125 8 4 C8 3.01 8 2.02 8 1 C6.02 1 4.04 1 2 1 C2.66 2.98 3.32 4.96 4 7 C3.01 6.67 2.02 6.34 1 6 C0.67 4.02 0.34 2.04 0 0 Z " fill="#B5642D" transform="translate(266,138)"/>
<path d="M0 0 C2.31 0.33 4.62 0.66 7 1 C6.360625 1.268125 5.72125 1.53625 5.0625 1.8125 C2.66868314 2.88667752 2.66868314 2.88667752 2 6 C3.65 6 5.3 6 7 6 C7 6.33 7 6.66 7 7 C0.47692308 7.36923077 0.47692308 7.36923077 -1.9375 5.5 C-2.4634375 4.7575 -2.4634375 4.7575 -3 4 C-2.01 2.68 -1.02 1.36 0 0 Z " fill="#78584D" transform="translate(348,263)"/>
<path d="M0 0 C0.99 0 1.98 0 3 0 C3 2.64 3 5.28 3 8 C1.68 8.33 0.36 8.66 -1 9 C-1 8.01 -1 7.02 -1 6 C-1.0309375 4.700625 -1.0309375 4.700625 -1.0625 3.375 C-1 1 -1 1 0 0 Z " fill="#593125" transform="translate(244,253)"/>
<path d="M0 0 C6.0546875 -0.1953125 6.0546875 -0.1953125 8 0 C10 2 10 2 10 5 C8.51793505 4.745504 7.03931385 4.47088238 5.5625 4.1875 C4.73878906 4.03667969 3.91507812 3.88585937 3.06640625 3.73046875 C2.38449219 3.48941406 1.70257813 3.24835938 1 3 C0.67 2.01 0.34 1.02 0 0 Z " fill="#5C3327" transform="translate(285,254)"/>
<path d="M0 0 C0.66 0 1.32 0 2 0 C3.25664978 2.90600261 4 4.79604584 4 8 C2.02 8 0.04 8 -2 8 C-1.47731534 5.23723823 -0.89130413 2.6739124 0 0 Z " fill="#ECE7E3" transform="translate(261,251)"/>
<path d="M0 0 C1.4540625 0.0309375 1.4540625 0.0309375 2.9375 0.0625 C2.2775 1.7125 1.6175 3.3625 0.9375 5.0625 C-1.0625 4.0625 -1.0625 4.0625 -2.0625 3.0625 C-2.3925 4.7125 -2.7225 6.3625 -3.0625 8.0625 C-4.0525 8.0625 -5.0425 8.0625 -6.0625 8.0625 C-3.88526119 0.07929104 -3.88526119 0.07929104 0 0 Z " fill="#765A4F" transform="translate(262.0625,241.9375)"/>
<path d="M0 0 C2.4851924 3.7277886 3.38440535 6.91322812 2.5625 11.375 C2.376875 11.91125 2.19125 12.4475 2 13 C-0.31 13.33 -2.62 13.66 -5 14 C-5 13.34 -5 12.68 -5 12 C-4.34 12 -3.68 12 -3 12 C-0.75263337 7.80491562 0 4.79167039 0 0 Z " fill="#6A483E" transform="translate(257,107)"/>
<path d="M0 0 C1.875 0.3125 1.875 0.3125 4 1 C4.66 1.99 5.32 2.98 6 4 C5.01 4.33 4.02 4.66 3 5 C1.31461399 6.99665314 1.31461399 6.99665314 0 9 C0 7.68 0 6.36 0 5 C-0.99 4.67 -1.98 4.34 -3 4 C-2.01 3.34 -1.02 2.68 0 2 C0 1.34 0 0.68 0 0 Z " fill="#69453C" transform="translate(292,243)"/>
<path d="M0 0 C1.98 0.495 1.98 0.495 4 1 C4.33 2.65 4.66 4.3 5 6 C3.02 6 1.04 6 -1 6 C-0.67 4.02 -0.34 2.04 0 0 Z " fill="#614337" transform="translate(323,263)"/>
<path d="M0 0 C1.32 0.33 2.64 0.66 4 1 C4.33 2.98 4.66 4.96 5 7 C3.35 7 1.7 7 0 7 C0 4.69 0 2.38 0 0 Z " fill="#5B352B" transform="translate(195,262)"/>
<path d="M0 0 C2.31 0 4.62 0 7 0 C7 0.66 7 1.32 7 2 C6.34 2 5.68 2 5 2 C5 4.31 5 6.62 5 9 C4.34 9 3.68 9 3 9 C3 6.69 3 4.38 3 2 C2.01 2 1.02 2 0 2 C0 1.34 0 0.68 0 0 Z " fill="#7C665D" transform="translate(345,285)"/>
<path d="M0 0 C3.34373475 0.55728913 6.03312999 1.35173889 9 3 C7.6875 4.5 7.6875 4.5 6 6 C5.01 6 4.02 6 3 6 C3 5.01 3 4.02 3 3 C2.34 3 1.68 3 1 3 C0.67 2.01 0.34 1.02 0 0 Z " fill="#C9631C" transform="translate(269,140)"/>
<path d="M0 0 C0.66 0.99 1.32 1.98 2 3 C0.9375 4.5 0.9375 4.5 -1 6 C-4.6875 6.1875 -4.6875 6.1875 -8 6 C-8.33 5.34 -8.66 4.68 -9 4 C-8.34 4 -7.68 4 -7 4 C-6.67 3.34 -6.34 2.68 -6 2 C-5.34 2 -4.68 2 -4 2 C-4 2.66 -4 3.32 -4 4 C-3.01 4 -2.02 4 -1 4 C-0.67 2.68 -0.34 1.36 0 0 Z " fill="#C78C2A" transform="translate(318,156)"/>
<path d="M0 0 C0.33 0.66 0.66 1.32 1 2 C2.65 1.34 4.3 0.68 6 0 C5.835 0.763125 5.67 1.52625 5.5 2.3125 C4.90854604 5.03596236 4.90854604 5.03596236 5 8 C3.68 7.01 2.36 6.02 1 5 C0.67 5.99 0.34 6.98 0 8 C0 5.36 0 2.72 0 0 Z " fill="#664E44" transform="translate(325,286)"/>
<path d="M0 0 C2.0625 0.4375 2.0625 0.4375 4 1 C4 2.32 4 3.64 4 5 C2.68 5 1.36 5 0 5 C-0.5625 3.0625 -0.5625 3.0625 -1 1 C-0.67 0.67 -0.34 0.34 0 0 Z " fill="#EFE8E5" transform="translate(220,287)"/>
<path d="M0 0 C2.475 0.99 2.475 0.99 5 2 C5 3.32 5 4.64 5 6 C3.02 6 1.04 6 -1 6 C-0.67 4.02 -0.34 2.04 0 0 Z " fill="#63473C" transform="translate(250,263)"/>
<path d="M0 0 C1.4540625 0.0309375 1.4540625 0.0309375 2.9375 0.0625 C0.9575 1.0525 0.9575 1.0525 -1.0625 2.0625 C-1.0625 3.3825 -1.0625 4.7025 -1.0625 6.0625 C0.2575 6.0625 1.5775 6.0625 2.9375 6.0625 C2.9375 6.7225 2.9375 7.3825 2.9375 8.0625 C0.5625 8.1875 0.5625 8.1875 -2.0625 8.0625 C-4.0625 6.0625 -4.0625 6.0625 -4.25 3.5 C-3.97031732 -0.13587487 -3.72751987 0.07607183 0 0 Z " fill="#6C5750" transform="translate(391.0625,285.9375)"/>
<path d="M0 0 C0.66 0 1.32 0 2 0 C2 0.66 2 1.32 2 2 C1.01 2.495 1.01 2.495 0 3 C0 4.32 0 5.64 0 7 C1.32 7.66 2.64 8.32 4 9 C2.35 9.33 0.7 9.66 -1 10 C-1.9765625 3.9453125 -1.9765625 3.9453125 -2 2 C-1.34 1.34 -0.68 0.68 0 0 Z " fill="#B76531" transform="translate(273,152)"/>
<path d="M0 0 C0.33 1.32 0.66 2.64 1 4 C-0.65 5.32 -2.3 6.64 -4 8 C-4.99 7.34 -5.98 6.68 -7 6 C-4.69 4.02 -2.38 2.04 0 0 Z " fill="#B15E27" transform="translate(350,139)"/>
<path d="M0 0 C1.32 0.33 2.64 0.66 4 1 C4 4.3 4 7.6 4 11 C2 7 2 7 2 5 C1.34 5 0.68 5 0 5 C0 3.35 0 1.7 0 0 Z " fill="#5F3D30" transform="translate(369,128)"/>
<path d="M0 0 C1.65 0 3.3 0 5 0 C6.04449911 3.13349732 5.93423645 3.98968256 5 7 C5 6.01 5 5.02 5 4 C4.67 4.66 4.34 5.32 4 6 C3.34 6 2.68 6 2 6 C0 1.125 0 1.125 0 0 Z " fill="#5D3226" transform="translate(248,98)"/>
<path d="M0 0 C1.98 0 3.96 0 6 0 C9 5.75 9 5.75 9 8 C8.01 7.67 7.02 7.34 6 7 C5.3125 4.9375 5.3125 4.9375 5 3 C3.35 2.67 1.7 2.34 0 2 C0 1.34 0 0.68 0 0 Z " fill="#765E53" transform="translate(374,242)"/>
<path d="M0 0 C2.375 0.25 2.375 0.25 5 1 C6.3125 3.0625 6.3125 3.0625 7 5 C6.01 5.495 6.01 5.495 5 6 C4.01 5.67 3.02 5.34 2 5 C2 4.01 2 3.02 2 2 C1.34 2 0.68 2 0 2 C0 1.34 0 0.68 0 0 Z " fill="#583328" transform="translate(339,155)"/>
<path d="M0 0 C0.33 1.32 0.66 2.64 1 4 C1.66 4 2.32 4 3 4 C3 5.32 3 6.64 3 8 C2.34 8 1.68 8 1 8 C0.67 8.99 0.34 9.98 0 11 C-0.19406478 9.35492782 -0.38007935 7.70890406 -0.5625 6.0625 C-0.66691406 5.14597656 -0.77132813 4.22945312 -0.87890625 3.28515625 C-0.91886719 2.53105469 -0.95882813 1.77695313 -1 1 C-0.67 0.67 -0.34 0.34 0 0 Z " fill="#593427" transform="translate(257,124)"/>
<path d="M0 0 C0.33 0 0.66 0 1 0 C1.36923077 5.53846154 1.36923077 5.53846154 -0.5 7.875 C-1.2425 8.431875 -1.2425 8.431875 -2 9 C-2.66 6.69 -3.32 4.38 -4 2 C-2.68 2.33 -1.36 2.66 0 3 C0 2.01 0 1.02 0 0 Z " fill="#79584E" transform="translate(414,248)"/>
<path d="M0 0 C1.32 0 2.64 0 4 0 C4 0.66 4 1.32 4 2 C6.64 2 9.28 2 12 2 C12 2.33 12 2.66 12 3 C11.39671875 2.97679687 10.7934375 2.95359375 10.171875 2.9296875 C9.37265625 2.91164062 8.5734375 2.89359375 7.75 2.875 C6.56664062 2.84019531 6.56664062 2.84019531 5.359375 2.8046875 C2.79268059 3.0171622 1.2083933 3.71345895 -1 5 C-0.67 3.35 -0.34 1.7 0 0 Z " fill="#644036" transform="translate(427,245)"/>
<path d="M0 0 C2.64 1.98 5.28 3.96 8 6 C4.37673261 7.2077558 3.35853631 6.54311128 0 5 C0 3.35 0 1.7 0 0 Z " fill="#683D19" transform="translate(296,149)"/>
<path d="M0 0 C0.33 0 0.66 0 1 0 C3 6.625 3 6.625 3 10 C1.02 8.35 -0.96 6.7 -3 5 C-1.125 1.125 -1.125 1.125 0 0 Z " fill="#A6592A" transform="translate(342,146)"/>
<path d="M0 0 C2.125 0.9375 2.125 0.9375 4 2 C3.25 3.9375 3.25 3.9375 2 6 C-0.125 6.75 -0.125 6.75 -2 7 C-2 6.34 -2 5.68 -2 5 C-1.01 5 -0.02 5 1 5 C0.01 3.68 -0.98 2.36 -2 1 C-1.34 0.67 -0.68 0.34 0 0 Z " fill="#614539" transform="translate(358,262)"/>
<path d="M0 0 C1.32 0.33 2.64 0.66 4 1 C3.67 3.31 3.34 5.62 3 8 C1.35 6.35 -0.3 4.7 -2 3 C-1.34 2.67 -0.68 2.34 0 2 C0 1.34 0 0.68 0 0 Z " fill="#69433B" transform="translate(363,167)"/>
<path d="M0 0 C1.125 3.75 1.125 3.75 0 6 C-1.32 5.67 -2.64 5.34 -4 5 C-3.6875 3.0625 -3.6875 3.0625 -3 1 C-2.01 0.67 -1.02 0.34 0 0 Z " fill="#5B3424" transform="translate(359,147)"/>
<path d="M0 0 C0.66 0.33 1.32 0.66 2 1 C1.67 1.99 1.34 2.98 1 4 C0.01 4.33 -0.98 4.66 -2 5 C-2 6.65 -2 8.3 -2 10 C-2.99 9.34 -3.98 8.68 -5 8 C-4.45773019 4.20411134 -2.79872437 2.52788007 0 0 Z " fill="#763B19" transform="translate(358,144)"/>
<path d="M0 0 C0.66 0 1.32 0 2 0 C2 2.64 2 5.28 2 8 C1.01 8 0.02 8 -1 8 C-1.93065133 5.39417629 -2.14917407 4.35801776 -1.0625 1.75 C-0.711875 1.1725 -0.36125 0.595 0 0 Z " fill="#735D54" transform="translate(237,286)"/>
<path d="M0 0 C1.65 0 3.3 0 5 0 C5 1.65 5 3.3 5 5 C3.35 5 1.7 5 0 5 C0 3.35 0 1.7 0 0 Z " fill="#B3A09A" transform="translate(356,285)"/>
<path d="M0 0 C0.99 0 1.98 0 3 0 C4.2077558 3.62326739 3.54311128 4.64146369 2 8 C1.34 8 0.68 8 0 8 C0 5.36 0 2.72 0 0 Z " fill="#72584F" transform="translate(288,286)"/>
<path d="M0 0 C4.875 0.875 4.875 0.875 6 2 C6.04080783 3.99958364 6.04254356 6.00045254 6 8 C4 6 4 6 3 3 C1.68 3 0.36 3 -1 3 C-0.67 2.01 -0.34 1.02 0 0 Z " fill="#7D6962" transform="translate(220,285)"/>
<path d="M0 0 C0.33 0.99 0.66 1.98 1 3 C1.66 3 2.32 3 3 3 C3 3.66 3 4.32 3 5 C2.34 5 1.68 5 1 5 C1 5.66 1 6.32 1 7 C0.34 7 -0.32 7 -1 7 C-1.33 7.99 -1.66 8.98 -2 10 C-3 8 -3 8 -2.44140625 6.0546875 C-2.15136719 5.33539063 -1.86132812 4.61609375 -1.5625 3.875 C-1.27503906 3.15054687 -0.98757813 2.42609375 -0.69140625 1.6796875 C-0.46324219 1.12539063 -0.23507812 0.57109375 0 0 Z " fill="#73544C" transform="translate(306,257)"/>
<path d="M0 0 C1.20628008 2.33214148 2.1654738 4.49642139 3 7 C1.68 7.33 0.36 7.66 -1 8 C-1.66 6.35 -2.32 4.7 -3 3 C-2.01 2.01 -1.02 1.02 0 0 Z " fill="#5C3127" transform="translate(264,244)"/>
<path d="M0 0 C1.32 0.33 2.64 0.66 4 1 C4 1.66 4 2.32 4 3 C5.32 3.33 6.64 3.66 8 4 C7.67 5.32 7.34 6.64 7 8 C5.83035398 6.8572081 4.66435444 5.71068285 3.5 4.5625 C2.8503125 3.92441406 2.200625 3.28632813 1.53125 2.62890625 C0 1 0 1 0 0 Z " fill="#C1842F" transform="translate(292,144)"/>
<path d="M0 0 C0.33 0.66 0.66 1.32 1 2 C-0.32 3.32 -1.64 4.64 -3 6 C-2.34 6.33 -1.68 6.66 -1 7 C-2.32 6.67 -3.64 6.34 -5 6 C-4.67 4.35 -4.34 2.7 -4 1 C-2.68 0.67 -1.36 0.34 0 0 Z " fill="#E2DAD5" transform="translate(394,286)"/>
<path d="M0 0 C1.32 0 2.64 0 4 0 C3.67 1.32 3.34 2.64 3 4 C1.68 4 0.36 4 -1 4 C-0.67 2.68 -0.34 1.36 0 0 Z " fill="#62433A" transform="translate(358,245)"/>
<path d="M0 0 C0.66 0.33 1.32 0.66 2 1 C2 2.65 2 4.3 2 6 C-0.64 6 -3.28 6 -6 6 C-6.33 5.34 -6.66 4.68 -7 4 C-5.02 4 -3.04 4 -1 4 C-0.67 2.68 -0.34 1.36 0 0 Z " fill="#B0602D" transform="translate(358,156)"/>
<path d="M0 0 C2.31 0 4.62 0 7 0 C7 0.33 7 0.66 7 1 C5.02 1 3.04 1 1 1 C1.33 3.31 1.66 5.62 2 8 C0.4375 6.25 0.4375 6.25 -1 4 C-0.6875 1.75 -0.6875 1.75 0 0 Z " fill="#6B3417" transform="translate(265,136)"/>
<path d="M0 0 C1.98 0.495 1.98 0.495 4 1 C3.67 2.32 3.34 3.64 3 5 C1.68 4.67 0.36 4.34 -1 4 C-0.67 2.68 -0.34 1.36 0 0 Z " fill="#8E7A72" transform="translate(304,286)"/>
<path d="M0 0 C1.65 0 3.3 0 5 0 C5.33 0.66 5.66 1.32 6 2 C5.01 3.485 5.01 3.485 4 5 C3.01 5 2.02 5 1 5 C0.67 3.35 0.34 1.7 0 0 Z " fill="#AF9E99" transform="translate(314,285)"/>
<path d="M0 0 C0.99 0.33 1.98 0.66 3 1 C3 3.31 3 5.62 3 8 C2.67 7.01 2.34 6.02 2 5 C1.01 4.67 0.02 4.34 -1 4 C-0.67 2.68 -0.34 1.36 0 0 Z " fill="#553125" transform="translate(319,251)"/>
<path d="M0 0 C1.98 0.495 1.98 0.495 4 1 C3.67 2.32 3.34 3.64 3 5 C1.68 5 0.36 5 -1 5 C-0.67 3.35 -0.34 1.7 0 0 Z " fill="#5A3326" transform="translate(242,247)"/>
<path d="M0 0 C0.5625 1.9375 0.5625 1.9375 1 4 C0 5 0 5 -2.06640625 5.09765625 C-2.89011719 5.08605469 -3.71382813 5.07445312 -4.5625 5.0625 C-5.38878906 5.05347656 -6.21507812 5.04445312 -7.06640625 5.03515625 C-7.70449219 5.02355469 -8.34257812 5.01195312 -9 5 C-9 4.67 -9 4.34 -9 4 C-7.88625 3.71125 -6.7725 3.4225 -5.625 3.125 C-1.99708908 2.30758671 -1.99708908 2.30758671 0 0 Z " fill="#73421D" transform="translate(320,158)"/>
<path d="M0 0 C1.65 0 3.3 0 5 0 C3.35 1.98 1.7 3.96 0 6 C-1.125 2.25 -1.125 2.25 0 0 Z " fill="#B2622E" transform="translate(279,154)"/>
<path d="M0 0 C3.96 0 7.92 0 12 0 C12 0.99 12 1.98 12 3 C11.01 3.33 10.02 3.66 9 4 C9 3.01 9 2.02 9 1 C6.03 1 3.06 1 0 1 C0 0.67 0 0.34 0 0 Z " fill="#B66637" transform="translate(351,138)"/>
<path d="M0 0 C0.99 0.33 1.98 0.66 3 1 C3.33 2.98 3.66 4.96 4 7 C3.34 6.67 2.68 6.34 2 6 C1.01 6.33 0.02 6.66 -1 7 C-0.67 4.69 -0.34 2.38 0 0 Z " fill="#6C4E43" transform="translate(253,100)"/>
<path d="M0 0 C0.99 0 1.98 0 3 0 C3.33 1.98 3.66 3.96 4 6 C2.68 5.67 1.36 5.34 0 5 C0 3.33333333 0 1.66666667 0 0 Z " fill="#633C32" transform="translate(368,260)"/>
<path d="M0 0 C0.66 0.33 1.32 0.66 2 1 C2.625 4.0625 2.625 4.0625 3 7 C1.68 6.67 0.36 6.34 -1 6 C-0.67 4.02 -0.34 2.04 0 0 Z " fill="#5E3228" transform="translate(409,250)"/>
<path d="M0 0 C0.99 0.66 1.98 1.32 3 2 C-0.465 4.97 -0.465 4.97 -4 8 C-4.33 7.34 -4.66 6.68 -5 6 C-4.34 6 -3.68 6 -3 6 C-2.67 5.01 -2.34 4.02 -2 3 C-1.34 3 -0.68 3 0 3 C0 2.01 0 1.02 0 0 Z " fill="#6B371B" transform="translate(330,154)"/>
<path d="M0 0 C0.66 0 1.32 0 2 0 C1.60196439 2.88575819 1.20990931 3.82189513 -1.0625 5.75 C-1.701875 6.1625 -2.34125 6.575 -3 7 C-3.33 5.68 -3.66 4.36 -4 3 C-3.01 2.67 -2.02 2.34 -1 2 C-0.67 1.34 -0.34 0.68 0 0 Z " fill="#593429" transform="translate(339,143)"/>
<path d="M0 0 C-2.97 2.475 -2.97 2.475 -6 5 C-6 3.35 -6 1.7 -6 0 C-3 -1 -3 -1 0 0 Z " fill="#C98E2E" transform="translate(338,142)"/>
<path d="M0 0 C1.22589844 0.15275391 1.22589844 0.15275391 2.4765625 0.30859375 C3.41628906 0.43427734 3.41628906 0.43427734 4.375 0.5625 C4.375 0.8925 4.375 1.2225 4.375 1.5625 C1.735 1.5625 -0.905 1.5625 -3.625 1.5625 C-3.625 2.2225 -3.625 2.8825 -3.625 3.5625 C-4.615 3.2325 -5.605 2.9025 -6.625 2.5625 C-6.625 1.9025 -6.625 1.2425 -6.625 0.5625 C-4.10446405 -0.69776798 -2.7707902 -0.35624445 0 0 Z " fill="#714E44" transform="translate(286.625,263.4375)"/>
<path d="M0 0 C0.99 0.99 1.98 1.98 3 3 C2.67 3.99 2.34 4.98 2 6 C1.34 5.67 0.68 5.34 0 5 C0.33 4.34 0.66 3.68 1 3 C-0.32 2.67 -1.64 2.34 -3 2 C-2.01 1.34 -1.02 0.68 0 0 Z M-2 6 C-1.34 6 -0.68 6 0 6 C-0.33 6.66 -0.66 7.32 -1 8 C-1.33 7.34 -1.66 6.68 -2 6 Z " fill="#6C483C" transform="translate(204,249)"/>
<path d="M0 0 C1.98 1.65 3.96 3.3 6 5 C3.50907189 6.24546405 2.58919267 5.7767578 0 5 C0 3.35 0 1.7 0 0 Z " fill="#693817" transform="translate(304,156)"/>
<path d="M0 0 C3.26954202 0.56371414 4.82575883 1.49962266 7 4 C6.67 4.99 6.34 5.98 6 7 C1.125 3.375 1.125 3.375 0 0 Z " fill="#6B331A" transform="translate(334,153)"/>
<path d="M0 0 C1.16945792 0.80847729 2.33550461 1.62189112 3.5 2.4375 C4.47453125 3.11619141 4.47453125 3.11619141 5.46875 3.80859375 C5.9740625 4.20175781 6.479375 4.59492188 7 5 C7 5.33 7 5.66 7 6 C5.35 6 3.7 6 2 6 C1.34 4.02 0.68 2.04 0 0 Z " fill="#CE8F2C" transform="translate(306,146)"/>
<path d="M0 0 C2.97 1.98 2.97 1.98 6 4 C5.34 5.32 4.68 6.64 4 8 C3.67 8 3.34 8 3 8 C3 6.35 3 4.7 3 3 C2.01 2.67 1.02 2.34 0 2 C0 1.34 0 0.68 0 0 Z " fill="#B66430" transform="translate(282,145)"/>
</svg>
